<svg xmlns="http://www.w3.org/2000/svg" width="100%" height="auto" viewBox="0 0 598 409.207">
  <defs>
    <style>
      .cls-1, .cls-3 {
        opacity: 0.4;
      }

      .cls-10, .cls-12, .cls-2, .cls-3, .cls-4, .cls-7, .cls-9 {
        fill: none;
      }

      .cls-10, .cls-2, .cls-3, .cls-4 {
        stroke: #fff;
      }

      .cls-2, .cls-3 {
        stroke-width: 0.3px;
      }

      .cls-5 {
        fill: #878787;
        font-size: 33px;
        font-family: HelveticaNeueLTStd-Bd, Helvetica Neue LT Std;
        letter-spacing: 0.01em;
      }

      .cls-6, .cls-8 {
        fill: #103a7e;
      }

      .cls-6 {
        opacity: 0.85;
      }

      .cls-7 {
        stroke: #707070;
      }

      .cls-9 {
        stroke: #0095bb;
      }

      .cls-10 {
        stroke-width: 0.5px;
      }

      .cls-11 {
        stroke: none;
      }
    </style>
  </defs>
  <g id="design-process-tablet" transform="translate(-58 -2393.454)">
    <g id="Group_74" data-name="Group 74" class="cls-1" transform="translate(364.436 2393.8)">
      <path id="Path_15" data-name="Path 15" class="cls-2" d="M58.732,59.3H36.046a1.846,1.846,0,1,0,0,3.693H58.732a1.846,1.846,0,1,0,0-3.693Z" transform="translate(45.462 97.122)"/>
      <rect id="Rectangle_15" data-name="Rectangle 15" class="cls-2" width="27.433" height="3.957" transform="translate(74.65 9.76)"/>
      <rect id="Rectangle_16" data-name="Rectangle 16" class="cls-2" width="3.957" height="3.957" transform="translate(106.568 9.76)"/>
      <path id="Path_16" data-name="Path 16" class="cls-2" d="M39.61,0V57.768h-5.8a14.892,14.892,0,0,0-11.343,6.067,7.005,7.005,0,0,1-5.8,2.9h-2.11l-.264-.264a4.866,4.866,0,0,0-4.22-1.319c-1.583,0-2.11.264-2.9.264A27.772,27.772,0,0,1,4,65.682v3.957a10.044,10.044,0,0,0,3.429-.264,20.367,20.367,0,0,1,2.638-.264,1.977,1.977,0,0,1,1.319.264c.528.264.528.528.528.528V97.6c0,.264,0,.528-.264.528a1.16,1.16,0,0,1-1.319.264,6.306,6.306,0,0,1-2.374-.264c-.528-.264-.791-.264-3.693-.264v3.957h2.11c.528.264,1.055.264,3.429.528h.264a5.3,5.3,0,0,0,3.429-1.055,11.975,11.975,0,0,1,4.748,1.055c.528.264.791.528,1.319.791a24.55,24.55,0,0,0,8.969,3.693,38.687,38.687,0,0,0,8.177.528h2.374v64.1H153.564V0ZM150.135,3.957V20.311H43.567V3.957ZM29.851,103.138a23.111,23.111,0,0,1-7.913-3.165c-.528-.264-.791-.528-1.319-.791A12.568,12.568,0,0,0,15.87,97.6h0V70.957h1.055a11.006,11.006,0,0,0,8.969-4.748,10.488,10.488,0,0,1,8.441-4.484H46.469a2.638,2.638,0,0,1,0,5.276H39.347v3.957H74.166a2.638,2.638,0,0,1,0,5.276H47.524v3.957H62.032a2.638,2.638,0,0,1,0,5.276H48.315v3.957h11.87a2.638,2.638,0,0,1,0,5.276H45.414v3.957H56.229a2.643,2.643,0,0,1,2.638,2.638,2.492,2.492,0,0,1-2.638,2.638H45.414v0C44.886,103.4,34.335,104.194,29.851,103.138ZM45.414,107.1H55.965a6.53,6.53,0,0,0,6.595-6.595,5.318,5.318,0,0,0-.791-2.9,6.564,6.564,0,0,0,4.748-6.331,8.587,8.587,0,0,0-1.055-3.693,6.43,6.43,0,0,0,3.165-5.539A9.372,9.372,0,0,0,68.1,79.4H74.43a6.595,6.595,0,0,0,0-13.189H52.536a7.8,7.8,0,0,0,.528-2.638,6.53,6.53,0,0,0-6.595-6.595h-2.9V24.268H150.135V146.135H43.567V107.359C44.358,107.359,45.15,107.359,45.414,107.1ZM43.567,167.5v-17.41H150.135V167.5Z" transform="translate(-4 0)"/>
      <path id="Path_17" data-name="Path 17" class="cls-2" d="M70.635,29.738l-2.9-2.638-18.2,18.2L43.2,38.97l-2.9,2.638,9.232,9.232Z" transform="translate(55.452 44.385)"/>
      <path id="Path_18" data-name="Path 18" class="cls-2" d="M63.688,77.477A28.488,28.488,0,1,0,35.2,48.988,28.37,28.37,0,0,0,63.688,77.477Zm0-53.02A24.532,24.532,0,1,1,39.157,48.988,24.655,24.655,0,0,1,63.688,24.457Z" transform="translate(47.1 33.575)"/>
    </g>
    <path id="Path_1468" data-name="Path 1468" class="cls-3" d="M30.044,0V42.249H25.8a10.891,10.891,0,0,0-8.3,4.437,5.123,5.123,0,0,1-4.244,2.122H11.717l-.193-.193a3.559,3.559,0,0,0-3.087-.965c-1.158,0-1.543.193-2.122.193A20.311,20.311,0,0,1,4,48.036V50.93a7.345,7.345,0,0,0,2.508-.193,14.9,14.9,0,0,1,1.929-.193,1.446,1.446,0,0,1,.965.193c.386.193.386.386.386.386V71.379c0,.193,0,.386-.193.386a.848.848,0,0,1-.965.193,4.612,4.612,0,0,1-1.736-.193c-.386-.193-.579-.193-2.7-.193v2.894H5.736a8.878,8.878,0,0,0,2.508.386h.193a3.877,3.877,0,0,0,2.508-.772,8.758,8.758,0,0,1,3.473.772c.386.193.579.386.965.579a17.954,17.954,0,0,0,6.559,2.7,28.294,28.294,0,0,0,5.98.386h1.736V125.4h83.726V0Zm80.832,2.894V14.855H32.938V2.894ZM22.906,75.431a16.9,16.9,0,0,1-5.788-2.315c-.386-.193-.579-.386-.965-.579a9.192,9.192,0,0,0-3.473-1.157h0V51.895h.772a8.049,8.049,0,0,0,6.559-3.472,7.67,7.67,0,0,1,6.173-3.28H35.06a1.929,1.929,0,0,1,0,3.858H29.851v2.894H55.316a1.929,1.929,0,0,1,0,3.858H35.831v2.894h10.61a1.929,1.929,0,0,1,0,3.858H36.41V65.4h8.681a1.929,1.929,0,0,1,0,3.858h-10.8v2.894H42.2a1.933,1.933,0,0,1,1.929,1.929A1.823,1.823,0,0,1,42.2,76.009h-7.91v0C33.9,75.623,26.185,76.2,22.906,75.431Zm11.382,2.894H42A4.776,4.776,0,0,0,46.828,73.5a3.889,3.889,0,0,0-.579-2.122,4.8,4.8,0,0,0,3.473-4.63,6.28,6.28,0,0,0-.772-2.7A4.7,4.7,0,0,0,51.265,60a6.854,6.854,0,0,0-.386-1.929h4.63a4.823,4.823,0,0,0,0-9.646H39.5a5.707,5.707,0,0,0,.386-1.929A4.776,4.776,0,0,0,35.06,41.67H32.938V17.748h77.938v89.128H32.938V78.517C33.516,78.517,34.1,78.517,34.288,78.324ZM32.938,122.5V109.77h77.938V122.5Z" transform="translate(250.785 2393.604)"/>
    <g id="Ellipse_55" data-name="Ellipse 55" class="cls-4" transform="translate(58 2528)">
      <ellipse class="cls-11" cx="67.5" cy="67" rx="67.5" ry="67"/>
      <ellipse class="cls-12" cx="67.5" cy="67" rx="67" ry="66.5"/>
    </g>
    <text id="STRATEGY" class="cls-5" transform="translate(67 2557)"><tspan x="4.474" y="32">STRAT</tspan><tspan x="23.449" y="67">EGY</tspan></text>
    <ellipse id="Ellipse_51" data-name="Ellipse 51" class="cls-6" cx="67.5" cy="67" rx="67.5" ry="67" transform="translate(496 2416)"/>
    <text id="TESTING" class="cls-5" transform="translate(511 2455)"><tspan x="5.909" y="32">TESTI</tspan><tspan x="28.085" y="67">NG</tspan></text>
    <g id="Ellipse_52" data-name="Ellipse 52" class="cls-4" transform="translate(472 2519)">
      <ellipse class="cls-11" cx="92" cy="92.5" rx="92" ry="92.5"/>
      <ellipse class="cls-12" cx="92" cy="92.5" rx="91.5" ry="92"/>
    </g>
    <text id="PRODUCTION" class="cls-5" transform="translate(496 2567)"><tspan x="6.632" y="32">PRODU</tspan><tspan x="14.601" y="67">CTION</tspan></text>
    <path id="Path_1467" data-name="Path 1467" class="cls-7" d="M981.042,1637.229l-99.528,80.6" transform="translate(-461.146 848.968)"/>
    <ellipse id="Ellipse_54" data-name="Ellipse 54" class="cls-8" cx="67.5" cy="67" rx="67.5" ry="67" transform="translate(204 2528)"/>
    <text id="DISCOVERY" class="cls-5" transform="translate(211 2557)"><tspan x="6.974" y="32">DISCO</tspan><tspan x="16.61" y="67">VERY</tspan></text>
    <g id="Ellipse_53" data-name="Ellipse 53" class="cls-9" transform="translate(350 2528)">
      <ellipse class="cls-11" cx="67.5" cy="67" rx="67.5" ry="67"/>
      <ellipse class="cls-12" cx="67.5" cy="67" rx="67" ry="66.5"/>
    </g>
    <text id="ANALYSIS" class="cls-5" transform="translate(352 2557)"><tspan x="0.677" y="32">ANALYS</tspan><tspan x="50.259" y="67">IS</tspan></text>
    <path id="Path_1469" data-name="Path 1469" class="cls-7" d="M681.768,2004.882c.913.527-387.3,0-387.3,0l-49.786-36.23" transform="translate(-118.842 670.826)"/>
    <g id="Group_75" data-name="Group 75" transform="translate(519.639 2672.05)">
      <path id="Path_1465" data-name="Path 1465" class="cls-10" d="M109.705,33.135,103.067,27.1,61.423,68.743,46.939,54.259,40.3,60.294,61.423,81.417Z" transform="translate(-9.521 11.029)"/>
      <path id="Path_1466" data-name="Path 1466" class="cls-10" d="M100.381,150.861A65.181,65.181,0,1,0,35.2,85.681,64.91,64.91,0,0,0,100.381,150.861Zm0-121.308A56.128,56.128,0,1,1,44.253,85.681,56.41,56.41,0,0,1,100.381,29.553Z" transform="translate(-35.2 -20.5)"/>
    </g>
  </g>
</svg>
