<svg xmlns="http://www.w3.org/2000/svg" width="100%" height="auto" viewBox="0 0 1293 624.83">
  <defs>
    <style>
      .cls-1, .cls-10, .cls-3, .cls-5, .cls-6, .cls-7, .cls-8 {
        fill: none;
      }

      .cls-1, .cls-6, .cls-7, .cls-8 {
        stroke: #fff;
      }

      .cls-2 {
        fill: #103a7e;
      }

      .cls-3 {
        stroke: #0095bb;
      }

      .cls-4 {
        fill: #878787;
        font-size: 65px;
        font-family: HelveticaNeueLTStd-Bd, Helvetica Neue LT Std;
        letter-spacing: 0.02em;
      }

      .cls-5 {
        stroke: #707070;
      }

      .cls-6, .cls-7 {
        stroke-width: 0.2px;
      }

      .cls-7 {
        opacity: 0.65;
      }

      .cls-8 {
        stroke-width: 0.5px;
      }

      .cls-9 {
        stroke: none;
      }
    </style>
  </defs>
  <g id="design-process-desktop" transform="translate(-98 -1484)">
    <g id="Ellipse_20" data-name="Ellipse 20" class="cls-1" transform="translate(98 1726)">
      <circle class="cls-9" cx="145.5" cy="145.5" r="145.5"/>
      <circle class="cls-10" cx="145.5" cy="145.5" r="145"/>
    </g>
    <circle id="Ellipse_21" data-name="Ellipse 21" class="cls-2" cx="145.5" cy="145.5" r="145.5" transform="translate(414 1726)"/>
    <g id="Ellipse_22" data-name="Ellipse 22" class="cls-3" transform="translate(730 1726)">
      <circle class="cls-9" cx="145.5" cy="145.5" r="145.5"/>
      <circle class="cls-10" cx="145.5" cy="145.5" r="145"/>
    </g>
    <circle id="Ellipse_24" data-name="Ellipse 24" class="cls-2" cx="145.5" cy="145.5" r="145.5" transform="translate(1046 1484)"/>
    <text id="STRATEGY" class="cls-4" transform="translate(118 1805)"><tspan x="18.77" y="63">STRAT</tspan><tspan x="56.795" y="128">EGY</tspan></text>
    <text id="DISCOVERY" class="cls-4" transform="translate(429 1805)"><tspan x="3.145" y="63">DISCOV</tspan><tspan x="64.7" y="128">ERY</tspan></text>
    <text id="ANALYSIS" class="cls-4" transform="translate(757 1805)"><tspan x="9.95" y="63">ANALY</tspan><tspan x="65.428" y="128">SIS</tspan></text>
    <text id="TESTING" class="cls-4" transform="translate(1077 1563)"><tspan x="20.945" y="63">TESTI</tspan><tspan x="65.6" y="128">NG</tspan></text>
    <g id="Ellipse_23" data-name="Ellipse 23" class="cls-1" transform="translate(992 1708)">
      <circle class="cls-9" cx="199.5" cy="199.5" r="199.5"/>
      <circle class="cls-10" cx="199.5" cy="199.5" r="199"/>
    </g>
    <text id="PRODUCTION" class="cls-4" transform="translate(1046 1827)"><tspan x="24.308" y="63">PRODU</tspan><tspan x="40.005" y="128">CTION</tspan></text>
    <path id="Path_1461" data-name="Path 1461" class="cls-5" d="M1096.714,1637.229,881.514,1811.5"/>
    <path id="Path_1462" data-name="Path 1462" class="cls-5" d="M1189.755,2046.989c1.974,1.14-837.428,0-837.428,0L244.68,1968.651"/>
    <g id="Group_43" data-name="Group 43" transform="translate(948.599 1490.343)">
      <path id="Path_15" data-name="Path 15" class="cls-6" d="M58.541,59.3H36.032a1.832,1.832,0,0,0,0,3.664H58.541a1.832,1.832,0,1,0,0-3.664Z" transform="translate(44.842 95.905)"/>
      <rect id="Rectangle_15" data-name="Rectangle 15" class="cls-6" width="27.22" height="3.926" transform="translate(74.07 9.684)"/>
      <rect id="Rectangle_16" data-name="Rectangle 16" class="cls-6" width="3.926" height="3.926" transform="translate(105.739 9.684)"/>
      <path id="Path_16" data-name="Path 16" class="cls-6" d="M39.333,0V57.319H33.575a14.776,14.776,0,0,0-11.254,6.02,6.951,6.951,0,0,1-5.758,2.879H14.469l-.262-.262a4.828,4.828,0,0,0-4.188-1.309c-1.57,0-2.094.262-2.879.262A27.556,27.556,0,0,1,4,65.171V69.1a9.966,9.966,0,0,0,3.4-.262,20.209,20.209,0,0,1,2.617-.262,1.961,1.961,0,0,1,1.309.262c.523.262.523.523.523.523V96.84c0,.262,0,.523-.262.523a1.151,1.151,0,0,1-1.309.262,6.257,6.257,0,0,1-2.356-.262C7.4,97.1,7.141,97.1,4.262,97.1v3.926H6.356c.523.262,1.047.262,3.4.523h.262a5.26,5.26,0,0,0,3.4-1.047,11.882,11.882,0,0,1,4.711,1.047c.523.262.785.523,1.309.785a24.359,24.359,0,0,0,8.9,3.664,38.385,38.385,0,0,0,8.114.523H38.81v63.6H152.4V0ZM149,3.926V20.153H43.259V3.926ZM29.649,102.336A22.932,22.932,0,0,1,21.8,99.2c-.523-.262-.785-.523-1.309-.785a12.471,12.471,0,0,0-4.711-1.57h0V70.405h1.047a10.92,10.92,0,0,0,8.9-4.711A10.406,10.406,0,0,1,34.1,61.245h12.04a2.617,2.617,0,1,1,0,5.235H39.072v3.926H73.62a2.617,2.617,0,0,1,0,5.235H47.185v3.926h14.4a2.617,2.617,0,0,1,0,5.235H47.971v3.926H59.748a2.617,2.617,0,0,1,0,5.235H45.092v3.926H55.822A2.623,2.623,0,0,1,58.44,100.5a2.473,2.473,0,0,1-2.617,2.617H45.092v0C44.568,102.6,34.1,103.383,29.649,102.336Zm15.442,3.926H55.561A6.48,6.48,0,0,0,62.1,99.719a5.276,5.276,0,0,0-.785-2.879,6.513,6.513,0,0,0,4.711-6.282,8.52,8.52,0,0,0-1.047-3.664,6.38,6.38,0,0,0,3.141-5.5,9.3,9.3,0,0,0-.523-2.617h6.282a6.543,6.543,0,1,0,0-13.086H52.158a7.743,7.743,0,0,0,.523-2.617,6.48,6.48,0,0,0-6.543-6.543H43.259V24.079H149V145H43.259V106.524C44.045,106.524,44.83,106.524,45.092,106.262ZM43.259,166.2V148.924H149V166.2Z" transform="translate(-4 0)"/>
      <path id="Path_17" data-name="Path 17" class="cls-6" d="M70.4,29.717,67.52,27.1,49.461,45.159l-6.282-6.281L40.3,41.5l9.161,9.161Z" transform="translate(54.708 43.829)"/>
      <path id="Path_18" data-name="Path 18" class="cls-6" d="M63.467,77.034A28.267,28.267,0,1,0,35.2,48.767,28.149,28.149,0,0,0,63.467,77.034Zm0-52.608A24.341,24.341,0,1,1,39.126,48.767,24.463,24.463,0,0,1,63.467,24.426Z" transform="translate(46.46 33.155)"/>
    </g>
    <path id="Path_1463" data-name="Path 1463" class="cls-7" d="M39.333,0V57.319H33.575a14.776,14.776,0,0,0-11.254,6.02,6.951,6.951,0,0,1-5.758,2.879H14.469l-.262-.262a4.828,4.828,0,0,0-4.188-1.309c-1.57,0-2.094.262-2.879.262A27.556,27.556,0,0,1,4,65.171V69.1a9.966,9.966,0,0,0,3.4-.262,20.209,20.209,0,0,1,2.617-.262,1.961,1.961,0,0,1,1.309.262c.523.262.523.523.523.523V96.84c0,.262,0,.523-.262.523a1.151,1.151,0,0,1-1.309.262,6.257,6.257,0,0,1-2.356-.262C7.4,97.1,7.141,97.1,4.262,97.1v3.926H6.356c.523.262,1.047.262,3.4.523h.262a5.26,5.26,0,0,0,3.4-1.047,11.882,11.882,0,0,1,4.711,1.047c.523.262.785.523,1.309.785a24.359,24.359,0,0,0,8.9,3.664,38.385,38.385,0,0,0,8.114.523H38.81v63.6H152.4V0ZM149,3.926V20.153H43.259V3.926ZM29.649,102.336A22.932,22.932,0,0,1,21.8,99.2c-.523-.262-.785-.523-1.309-.785a12.471,12.471,0,0,0-4.711-1.57h0V70.405h1.047a10.92,10.92,0,0,0,8.9-4.711A10.406,10.406,0,0,1,34.1,61.245h12.04a2.617,2.617,0,1,1,0,5.235H39.072v3.926H73.62a2.617,2.617,0,0,1,0,5.235H47.185v3.926h14.4a2.617,2.617,0,0,1,0,5.235H47.971v3.926H59.748a2.617,2.617,0,0,1,0,5.235H45.092v3.926H55.822A2.623,2.623,0,0,1,58.44,100.5a2.473,2.473,0,0,1-2.617,2.617H45.092v0C44.568,102.6,34.1,103.383,29.649,102.336Zm15.442,3.926H55.561A6.48,6.48,0,0,0,62.1,99.719a5.276,5.276,0,0,0-.785-2.879,6.513,6.513,0,0,0,4.711-6.282,8.52,8.52,0,0,0-1.047-3.664,6.38,6.38,0,0,0,3.141-5.5,9.3,9.3,0,0,0-.523-2.617h6.282a6.543,6.543,0,1,0,0-13.086H52.158a7.743,7.743,0,0,0,.523-2.617,6.48,6.48,0,0,0-6.543-6.543H43.259V24.079H149V145H43.259V106.524C44.045,106.524,44.83,106.524,45.092,106.262ZM43.259,166.2V148.924H149V166.2Z" transform="translate(782.715 1490.343)"/>
    <g id="Group_46" data-name="Group 46" transform="translate(-556.074 414.348)">
      <path id="Path_1465" data-name="Path 1465" class="cls-8" d="M104.93,32.72,98.748,27.1,59.97,65.878,46.482,52.39,40.3,58.01,59.97,77.68Z" transform="translate(1734.436 1581.245)"/>
      <path id="Path_1466" data-name="Path 1466" class="cls-8" d="M95.9,141.892A60.7,60.7,0,1,0,35.2,81.2,60.444,60.444,0,0,0,95.9,141.892Zm0-112.962A52.266,52.266,0,1,1,43.63,81.2,52.529,52.529,0,0,1,95.9,28.93Z" transform="translate(1710.874 1552.34)"/>
    </g>
  </g>
</svg>
