<svg xmlns="http://www.w3.org/2000/svg" width="163" height="165" viewBox="0 0 163 165">
  <g id="icon_results" transform="translate(-99 -1020)">
    <g id="Ellipse_47" data-name="Ellipse 47" transform="translate(99 1020)" fill="#2b2b2b" stroke="#fff" stroke-width="0.5">
      <ellipse cx="81.5" cy="82.5" rx="81.5" ry="82.5" stroke="none"/>
      <ellipse cx="81.5" cy="82.5" rx="81.25" ry="82.25" fill="none"/>
    </g>
    <g id="XMLID_806_" transform="translate(124 1050.379)">
      <g id="XMLID_386_" transform="translate(0 0)">
        <path id="XMLID_389_" d="M92.111,58.82a36.382,36.382,0,0,0-28.291-31.9v-4.58a6.128,6.128,0,0,0-1.479-12.076H49.362a6.128,6.128,0,0,0-1.479,12.076V26.93a36.194,36.194,0,0,0-17.751,9.764,36.586,36.586,0,0,0-3.061,3.473c-.045,0-.09-.007-.137-.007H14.09a1.8,1.8,0,1,0,0,3.605H24.619a36.135,36.135,0,0,0-3.2,6.928H1.8a1.8,1.8,0,0,0,0,3.605H20.4a36.65,36.65,0,0,0-.895,6.928H11.536a1.8,1.8,0,1,0,0,3.605h8.029a36.6,36.6,0,0,0,1.126,6.928H9.013a1.8,1.8,0,1,0,0,3.605H21.841A36.406,36.406,0,0,0,52.28,98.676q1.786.176,3.572.176a36.5,36.5,0,0,0,19.871-5.873,1.8,1.8,0,1,0-1.967-3.021,32.806,32.806,0,1,1,9.662-9.675,1.8,1.8,0,1,0,3.023,1.963A36.527,36.527,0,0,0,92.111,58.82ZM46.839,16.391a2.526,2.526,0,0,1,2.524-2.524H62.341a2.524,2.524,0,0,1,0,5.047H49.362A2.526,2.526,0,0,1,46.839,16.391Zm4.649,9.92V22.519h8.727V26.3A36.728,36.728,0,0,0,51.488,26.311Z" transform="translate(0 -10.262)" fill="none" stroke="#fff" stroke-width="0.5"/>
        <path id="XMLID_391_" d="M437.573,425.5a1.8,1.8,0,1,0,1.274.528A1.812,1.812,0,0,0,437.573,425.5Z" transform="translate(-357.221 -350.652)" fill="none" stroke="#fff" stroke-width="0.5"/>
        <path id="XMLID_397_" d="M277.986,219.939l-8.928,8.928a5.587,5.587,0,0,0-4.948,0l-4-4a1.8,1.8,0,0,0-2.549,2.549l4,4a5.6,5.6,0,1,0,10.047,0l8.666-8.666h0l.262-.262a1.8,1.8,0,0,0-2.549-2.549Zm-11.4,15.947a2,2,0,1,1,2-2A2,2,0,0,1,266.583,235.887Z" transform="translate(-210.704 -181.711)" fill="none" stroke="#fff" stroke-width="1"/>
        <path id="XMLID_398_" d="M401.128,289.86h-1.67a1.8,1.8,0,1,0,0,3.605h1.67a1.8,1.8,0,0,0,0-3.605Z" transform="translate(-325.976 -239.461)" fill="none" stroke="#fff" stroke-width="0.5"/>
        <path id="XMLID_399_" d="M196.554,289.616h-1.67a1.8,1.8,0,0,0,0,3.605h1.67a1.8,1.8,0,1,0,0-3.605Z" transform="translate(-158.278 -239.261)" fill="none" stroke="#fff" stroke-width="0.5"/>
        <path id="XMLID_400_" d="M301.926,188.094a1.8,1.8,0,0,0,1.8-1.8v-1.67a1.8,1.8,0,0,0-3.605,0v1.67A1.8,1.8,0,0,0,301.926,188.094Z" transform="translate(-246.025 -151.715)" fill="none" stroke="#fff" stroke-width="0.5"/>
        <path id="XMLID_424_" d="M301.682,387.393a1.8,1.8,0,0,0-1.8,1.8v1.67a1.8,1.8,0,0,0,3.605,0V389.2A1.8,1.8,0,0,0,301.682,387.393Z" transform="translate(-245.825 -319.414)" fill="none" stroke="#fff" stroke-width="0.5"/>
        <path id="XMLID_425_" d="M1.8,351.44a1.8,1.8,0,1,0,1.274,3.077A1.8,1.8,0,0,0,1.8,351.44Z" transform="translate(0 -289.941)" fill="none" stroke="#fff" stroke-width="0.5"/>
      </g>
    </g>
  </g>
</svg>
