<svg xmlns="http://www.w3.org/2000/svg" width="163" height="165" viewBox="0 0 163 165">
  <g id="icon_ux" transform="translate(-99 -1300)">
    <g id="Ellipse_48" data-name="Ellipse 48" transform="translate(99 1300)" fill="#2b2b2b" stroke="#fff" stroke-width="0.5">
      <ellipse cx="81.5" cy="82.5" rx="81.5" ry="82.5" stroke="none"/>
      <ellipse cx="81.5" cy="82.5" rx="81.25" ry="82.25" fill="none"/>
    </g>
    <g id="Page-1" transform="translate(-31 1311.827)">
      <g id="_071---AB-Testing" data-name="071---AB-Testing" transform="translate(163 32.343)">
        <path id="Shape" d="M31.485,0l5.4,11.11H0L4.945,0h26.54Z" transform="translate(66.321 70.83) rotate(180)" fill="none" stroke="#fff" stroke-width="0.5"/>
        <path id="Shape-2" data-name="Shape" d="M48.946-.548H93.89a3.477,3.477,0,0,1,3.317,3.263v54.29c.077,1.435-1.4,2.648-3.317,2.715H4.319C2.406,59.653.924,58.44,1,57.005V2.715A3.477,3.477,0,0,1,4.319-.548Z" transform="translate(-0.998 0)" fill="none" stroke="#fff" stroke-width="0.5"/>
        <path id="Rectangle-path" d="M2,0H55a2,2,0,0,1,2,2V4a2,2,0,0,1-2,2H2A2,2,0,0,1,0,4V2A2,2,0,0,1,2,0Z" transform="translate(19.721 70.83)" fill="none" stroke="#fff" stroke-width="0.5"/>
        <path id="Oval" d="M13.391,0A13.391,13.391,0,1,1,0,13.391,13.391,13.391,0,0,1,13.391,0Z" transform="translate(59.833 9.977)" fill="none" stroke="#fff" stroke-width="0.5"/>
        <path id="Shape-3" data-name="Shape" d="M50.52,18.795A4.552,4.552,0,0,0,46.564,12H44.282A2.282,2.282,0,0,0,42,14.282v10.65a2.282,2.282,0,0,0,2.282,2.282h3.8A4.625,4.625,0,0,0,52.65,22.65a4.564,4.564,0,0,0-2.13-3.855Zm-3.956-3.752a1.521,1.521,0,0,1,1.521,1.521,1.582,1.582,0,0,1-1.521,1.521H45.043V15.043Zm1.521,9.129H45.043V21.129h3.043a1.521,1.521,0,0,1,1.521,1.521A1.6,1.6,0,0,1,48.086,24.172Z" transform="translate(25.993 3.656)" fill="none" stroke="#fff" stroke-width="0.5"/>
        <path id="Oval-2" data-name="Oval" d="M13.391,0A13.391,13.391,0,1,1,0,13.391,13.391,13.391,0,0,1,13.391,0Z" transform="translate(11.625 9.977)" fill="none" stroke="#fff" stroke-width="0.5"/>
        <g id="Group_30" data-name="Group 30" transform="translate(15.035 15.65)">
          <path id="Shape-4" data-name="Shape" d="M25.182,24.758l-3.4-10.45a3.3,3.3,0,0,0-6.3,0l-3.4,10.45a1.659,1.659,0,0,0,3.152,1.028l.71-2.173h5.386l.707,2.173A1.659,1.659,0,0,0,23.6,26.931a1.68,1.68,0,0,0,.514-.081,1.659,1.659,0,0,0,1.063-2.092ZM17.013,20.3l1.616-4.96,1.612,4.96Z" transform="translate(-8.78 -11.996)" fill="none" stroke="#fff" stroke-width="1"/>
          <rect id="Rectangle-path-2" data-name="Rectangle-path" width="19" height="6" rx="2" transform="translate(-0.313 23.179)" fill="none" stroke="#fff" stroke-width="0.5"/>
          <path id="Rectangle-path-3" data-name="Rectangle-path" d="M1.956,0h15.65a1.956,1.956,0,0,1,1.956,1.956V3.913a1.956,1.956,0,0,1-1.956,1.956H1.956A1.956,1.956,0,0,1,0,3.913V1.956A1.956,1.956,0,0,1,1.956,0Z" transform="translate(47.92 23.502)" fill="none" stroke="#fff" stroke-width="0.5"/>
        </g>
        <path id="Shape-5" data-name="Shape" d="M97.207,42v6.336a3.483,3.483,0,0,1-3.317,3.616H4.319A3.483,3.483,0,0,1,1,48.336V42Z" transform="translate(-0.998 7.768)" fill="none" stroke="#fff" stroke-width="0.5"/>
        <path id="XMLID_425_" d="M1.66,351.44a1.66,1.66,0,1,0,1.174,2.834A1.66,1.66,0,0,0,1.66,351.44Z" transform="translate(46.721 -299.092)" fill="none" stroke="#fff" stroke-width="0.5"/>
        <path id="Path_1459" data-name="Path 1459" d="M.881,7.776h96.24" transform="translate(-0.881 -5)" fill="none" stroke="#fff" stroke-width="0.5"/>
      </g>
    </g>
  </g>
</svg>
