<svg id="Layer_1" data-name="Layer 1" xmlns="http://www.w3.org/2000/svg" xmlns:xlink="http://www.w3.org/1999/xlink" viewBox="0 0 292.88 214.01"><defs><style>.cls-1{fill:url(#radial-gradient);}.cls-2{fill:url(#radial-gradient-2);}.cls-3{fill:url(#linear-gradient);}.cls-4{fill:#fff;}</style><radialGradient id="radial-gradient" cx="17.56" cy="17.13" r="128.22" gradientTransform="matrix(1, 0, 0, -1, 128.92, 124.13)" gradientUnits="userSpaceOnUse"><stop offset="0.33" stop-color="#004f9f"/><stop offset="0.83" stop-color="#1a1532"/><stop offset="1"/></radialGradient><radialGradient id="radial-gradient-2" cx="-1618.8" cy="415.84" r="128.35" gradientTransform="matrix(1, 0, 0, -1, 1636.13, 433.7)" gradientUnits="userSpaceOnUse"><stop offset="0.37" stop-color="#41c0f0"/><stop offset="0.6" stop-color="#15c6ff"/><stop offset="0.61" stop-color="#14c0fa"/><stop offset="0.63" stop-color="#0ea5e2"/><stop offset="0.67" stop-color="#098fce"/><stop offset="0.7" stop-color="#057ebe"/><stop offset="0.75" stop-color="#0273b4"/><stop offset="0.82" stop-color="#006cae"/><stop offset="1" stop-color="#006aac"/></radialGradient><linearGradient id="linear-gradient" x1="67.1" y1="190.17" x2="159.1" y2="-61.83" gradientTransform="matrix(1, 0, 0, -1, 128.92, 124.13)" gradientUnits="userSpaceOnUse"><stop offset="0.67" stop-color="#008cff"/><stop offset="0.7" stop-color="#067de6"/><stop offset="0.77" stop-color="#1555a4"/><stop offset="0.85" stop-color="#272555"/></linearGradient></defs><polygon class="cls-1" points="292.88 124.48 287.38 114.33 282.08 113.04 263.18 94.69 261.24 84.77 242.27 65.06 252.08 41.59 226.92 52.37 24.91 0 60.7 68.47 0.08 71.85 105.75 131.23 54.76 169.55 127 138.17 179.25 214.01 215.72 177.01 217.75 123.88 233.41 132.22 244.55 130.15 263.18 137.2 267.45 146.86 281.83 143.65 285.47 138.52 289.61 135.77 289.19 131.14 292.88 124.48"/><path class="cls-2" d="M163.29,34.11l-3.89-7.18-.94-1.73h0v-.06l-1.54-.36h0l-1.54-.36-1.54-.36-.65-.15-1.31-1.29-2.26-2.23h0l-2.29-2.21h0l-2.27-2.24L142.8,13.7h0l-2.27-2.24h0l-2.26-2.28h0L136,7l-1.73-1.71L133.07-.67l-.75-3.7-1.11-1.16h0L128.87-8h0l-2.34-2.43h0l-2.34-2.43h0l-2.33-2.43h0l-2.34-2.43h0l-2.38-2.41h0l-2.33-2.43-1.5-1.55.47-1.12h0l.73-1.75h0l.73-1.75h0l.73-1.74h0l.73-1.75.73-1.75.26-.64.47-1.11.73-1.74.73-1.75.73-1.75.73-1.75.73-1.74.73-1.75.58-1.38-1,.41-1.2.51-1.2.52-1.21.51-1.2.52-1.21.51-1.2.52-1.2.52-1.21.51-1.2.52-1.21.51-1.2.52-1.21.52-1.2.51-1.2.52-1.21.51-1.2.52-1.21.51-1.2.52-1.2.52-1.11.51-.12.06-1.4-.37-1.56-.4-1.56-.4L92-38.34l-1.56-.4-1.55-.4h0l-1.56-.4-1.56-.4-1.55-.41-1.56-.4-1.56-.4h0l-1.56-.41L77.93-42l-1.55-.41h0l-1.56-.4h0l-1.56-.4-1.56-.41h0L70.14-44l-1.55-.41h0L67-44.79h0l-1.56-.4h0l-1.56-.41L62.35-46l-1.55-.4h0l-1.56-.41-1.56-.4-1.56-.41h0L54.56-48,53-48.42l-1.56-.41-1.56-.4h0l-1.56-.41L46.77-50l-1.55-.4h0l-1.56-.41-1.56-.4-1.56-.4L39-52.06h0l-1.55-.4h0l-1.56-.41h0l-1.56-.4h0l-1.56-.4-1.56-.41-1.55-.4-1.56-.41h0l-1.56-.4h0L25-55.69h0L23.4-56.1h0l-1.55-.4-1.56-.41h0l-1.56-.4h0l-1.56-.4h0l-1.56-.41h0l-1.55-.4h0l-1.56-.4h0l-1.56-.41-1.56-.4h0l-1.56-.41-1.55-.4h0l-1.56-.4h0l-1.56-.41h0l-1.56-.4L0-62.16l-1.55-.4h0L-3.08-63h0l-1.56-.41h0l-1.56-.4h0l-1.56-.4h0l-1.55-.41h0l-1.56-.4h0l-1.56-.41h0l-1.56-.4h0l-1.56-.4-1.55-.41h0l-1.56-.4-1.56-.41h0l-1.56-.4h0l-1.56-.4h0l-1.56-.41h0l-1.55-.4h0L-28-69.43h0l-1.56-.4-1.56-.4h0l-1.56-.41h0l-1.55-.4h0l-1.56-.4h0l-1.56-.41h0l-1.56-.4h0l-1.56-.41-1.55-.4h0l-1.56-.4h0l-1.27-.36-.33-.09-1.56-.4-1.56-.41-1.55-.4-1.56-.4L-53-75.93l-1.56-.4-1.56-.4-1.55-.41-1.56-.4-1.56-.41-1.56-.4-1.56-.4-1.55-.41-1.56-.4L-68.56-80l-1.56-.4-1.56-.4-1.55-.41-1.56-.4L-76.35-82l-1.56-.4-1.56-.4L-81-83.2l-1.56-.4-1.56-.4-1.56-.41-1.56-.4-1.55-.41-1.56-.4-1.56-.4-1.56-.41-1.56-.4-1.55-.41-1.56-.4-1.56-.4-1.56-.41-1.58-.37-1.18-.31,4,7.72,5.31,10.18L-92.5-67l3.09,5.92h0l5.32,10.17h0l5.32,10.18h0l5.31,10.17h0l5.17,9.88-1.34.07-1.37.08-1.37.07-1.38.08h0l-1.37.08h0l-1.37.07h0l-1.37.08-1.38.08-1.37.07L-82-19.9l-1.38.08h0l-1.37.07-1.37.08h0l-1.38.08-1.37.07-1.37.08-1.38.08H-93l-1.37.08-1.38.08-1.37.07-1.37.08-1.37.08-1.38.07-1.37.08-1.37.08-1.38.07-1.37.08-1.37.08-1.38.07-1.37.08-1.37.08-1.38.07-1.37.08-1.37.08-1.37.07-1.38.08-1.37.08-1.37.07-1.38.08-5.74.32,7.48,4.2,1.79,1,1.79,1,1.79,1,1.79,1,1.79,1,1.79,1,1.79,1,1.79,1,1.79,1,1.79,1,1.79,1,1.79,1,1.79,1,1.79,1,1.79,1,1.79,1,.3.17,1.49.84,1.79,1h0l1.79,1,1.79,1,1.79,1h0l1.79,1,1.79,1h0l1.78,1h0l1.79,1,1.79,1,1.79,1,1.79,1h0l1.79,1h0l1.79,1,1.79,1,1.79,1h0l1.79,1,1.79,1,1.79,1h0l1.79,1h0l1.79,1,1.79,1,1.79,1h0l1.79,1,1.79,1,1.79,1,1.79,1h0l1.79,1,1.79,1,1.79,1h0l1.79,1h0l1.79,1,1.79,1h0l1.77,1,1.79,1,1.79,1,1.79,1,1.79,1,1.56.87-1,.71-1.09.81-1.09.82-1.09.81-1.08.82-1.09.81-1.09.82-1.09.81L-33,49l-1.09.81-1.09.82-1.09.81-1.09.82-1.09.81-1.09.82-1.08.81-1.09.82-1.09.81-1.09.82-1.09.81-1.09.82-1.09.81-1.09.81-1.09.82-1.09.81-1.09.82-1.08.81-1.09.82-1.09.81-1.09.82-1.09.81L-58,67.7l-1.09.81-1.09.82-1.09.81-1.09.82-1.08.81-1.09.82-1.09.81-1.09.82-1.09.81-1.09.82-1.09.81-1.09.82-1.09.81-1.09.81-1.09.82-.49.37.55-.24,1.2-.52,1.2-.52,1.2-.53,1.2-.52,1.2-.52,1.21-.52,1.2-.52,1.2-.53,1.2-.52,1.2-.52,1.2-.52,1.21-.52,1.2-.53,1.2-.52,1.2-.52,1.2-.52,1.2-.52,1.21-.53,1.2-.52,1.2-.52,1.2-.52,1.2-.52,1.2-.53,1.21-.52,1.2-.52,1.2-.52,1.2-.52,1.2-.53,1.2-.52,1.21-.52,1.2-.52,1.2-.52,1.2-.53,1.2-.52,1.21-.52,1.2-.52,1.2-.52,1.2-.53,1.2-.52,1.2-.52,1.21-.52,1.2-.52,1.2-.53,1.2-.52,1.2-.52L-19,56l1.21-.53,1.2-.52,1.2-.52,1.2-.52,1.2-.52,1.2-.53,1.21-.52,1.2-.52,1.2-.52,1.34-.16,1.2-.53,1.2-.52,1.21-.52,1.2-.52.14-.06,2.8,4.06L4.07,57.7l2.56,3.73.62.89h0l3.17,4.61h0l3.18,4.61,3.18,4.62L20,80.77h0l3.18,4.61L26.31,90h0l3.18,4.61,3.18,4.61h0l3.18,4.62h0L39,108.45h0v.08l3.12,4.53,3.18,4.62,3.18,4.61,1.77,2.57.45-.45,1-1,1-1,1-1,1-1,1-1,1-1,1-1,1-1,1-1,1-1,1-1,1-1,1-1,1-1,1-1,1-1,1-1,1-1,1-1,1-1,.9-.92.1-.11h0l1-1h0l1-1,1-1h0l1-1h0l1-1h0l1-1,1-1,1-1,1-1h0l1-1h0l1-1h0l1-1,1-1h0l1-1h0l.72-.73v-1h0l.13-3.31h0L86.71,81h0l.12-3.31h0L87,74.39h0l.13-3.32h0l.12-3.31h0l.13-3.32h0l.12-3.31h0l.13-3.32h0l.13-3.31h0l.12-3.32h0L88,47.86h0l.13-3.31h0l.12-3.32h0l.13-3.31h0l.09-2.44.47.25,1.77.94h0l1.76.94h0l1.76.94h0l1.77.94,1.76.94h0l1.77.94h0l1.76.94,1.76.93h0l1.08.58.51-.09h0l1.31-.25h0l1.31-.24,1.31-.24,1.31-.25h0l1.31-.24,1.31-.24,1.31-.25h0l1.3-.24h.17l1.43.54h0l1.65.62h0l1.64.62h0l1.64.63h0l1.64.62h0l1.64.62,1.64.62h0l1.65.62h0l1.64.62h0l1.64.62,1.64.62h0l.78.3,4.27,9.66h.17l1.29-.29h0l1.29-.28,1.3-.29h0l1.29-.29h0l1.29-.29,1.29-.29h0l1.29-.28,1.29-.29,1.3-.29h0l1.29-.29,1.29-.29h.06l.85-1.26h0l.89-1.33.89-1.33.69-1,.26-.17,1.11-.74,1.12-.74.62-.41.5-.33.79-.53-.13-1.39-.3-3.24.27-.49.83-1.49.83-1.49.82-1.5.83-1.49.12-.2ZM-24.47,31h0l-.81-.47.52-.3,1.14-.67,1.15-.66,1.15-.66,1.14-.67,1.15-.66,1.17-.7,1.15-.66,1.14-.66,1.15-.67,1.15-.66,1.14-.67L-11,22.2l.61-.36L-11,22l-1.27.33-1.28.34h0l-1.27.33-1.28.33h0l-1.27.33L-18.7,24l-1.27.33-1.28.33h0l-1.27.33-1.27.34-1.28.33h0l-1.27.33-1.28.33-1.27.34-1.28.33-1.27.33-1.28.33-.84.22-.61-.36L-36,26.48l-1.81-1.05-1.81-1.06-1.81-1.05-1.81-1.06h0L-45,21.21l-1.84-1h0l-1.8-1h0l-1.81-1.06-1.81-1.05h0l-1.81-1L-55.89,15l-1.81-1h0l-1.81-1.06-1.81-1.05h0l-1.81-1.06-1.81-1-1.8-1-1.81-1.06h0l-1.81-1-1.81-1.06L-74,4.52l-1.81-1.06-1.8-1L-79.4,1.18l-1.81-1h0L-83-.87-84.86-2l-1.81-1h0l-1.8-1.06-1.81-1-1.81-1h0l-.37-.22h.28l1.36-.11,1.36-.11h0l1.36-.11h0l1.36-.11,1.36-.11h0L-84-7h0l1.36-.11,1.36-.11,1.36-.11,1.36-.11h0l1.36-.11,1.36-.11h0l1.36-.11h0l1.36-.11L-71.78-8l1.36-.11h0l1.36-.11,1.36-.11,1.36-.11L-65-8.54l1.36-.11,1.36-.11,1.36-.11h0L-59.54-9h0l1.36-.11,1.36-.11,1.37-.11,1.36-.11,1.36-.11,1.36-.11L-50-9.75l1.36-.11h0l1.36-.11,1.36-.11h0l1.36-.11h0l1.36-.11,1.36-.11,1.36-.11,1.36-.11h0l1.36-.11,1.36-.11L-35-11l1.36-.11h0l1.36-.11,1.36-.11h0l1.36-.11h0l1.36-.11,1.36-.11,1.36-.11,1.36-.11h0l1.36-.11,1.36-.11,1.36-.11,1.36-.11h0l1.36-.11L-16-12.5h0l1.36-.11,1.36-.11,1.36-.11,1.36-.11L-9.21-13h0l1.36-.11,1.36-.11h0l1.37-.11h0l1.36-.11h0l1.36-.11L-1-13.71h0l1.36-.11h0l1.36-.11L3-14l1.36-.11,1.36-.11h0l1.36-.11,1.36-.11h0l1.36-.11,1.36-.11h0l1.36-.11,1.36-.11h0L15.28-15l1.36-.11L18-15.25h0l1.36-.11,1.36-.11h0l1.36-.11h0l1.36-.11h0l1.36-.11h0l1.36-.11h0L27.52-16l1.36-.11h0l1.36-.11,1.36-.11h0L33-16.46h0l1.36-.11,1.36-.11h0L37-16.79l1.36-.11h0L39.76-17h0l1.36-.11h0l.71-.06H39.67l-1.42-.05h0l-1.43-.06H35.4L34-17.34l-1.43-.05-1.42-.06H29.71l-1.42-.05H26.86l-1.42-.06L24-17.61H22.59l-1.42-.05h0l-1.42-.06h0l-1.42-.05H16.9l-1.42-.06-1.42-.05H12.63l-1.42-.05h0L9.79-18H8.37L6.94-18l-1.42-.05L4.1-18.15H2.67L1.25-18.2H-.17l-1.39-.62L-3-18.87H-4.41l-1.42-.05L-7.26-19-8.68-19H-10.1l-1.42-.06h0l-1.43-.05h-1.42l-1.42-.05h0l-1.43-.06h-1.42l-1.42-.05-1.42-.05-1.43-.06h-1.42l-1.42-.05h-1.43l-1.42-.06L-30-19.57h-1.42l-1.43-.05-1.42-.06-1.42-.05h-1.43l-1.42-.06L-40-19.84H-41.4l-1.43-.05-1.42-.06h-1.42L-47.1-20-48.52-20l-1.42-.06h-1.58l-3.74-6.48h0l-4.2-7.26h0l-4.19-7.26h0l-4.2-7.26h0L-72-55.62h0l-4.2-7.26h0l-4.2-7.26h0l-1.77-3.68.66.16,1.54.37,1.55.38h0l1.55.37h0l1.55.38,1.54.38,1.55.37h0l1.55.38h0l1.54.37,1.55.38,1.55.37h0l1.55.38,1.54.38h0l1.55.37,1.55.38h0l1.55.37,1.54.38,1.55.38,1.55.37h0l1.54.38,1.55.37,1.55.38h0l1.55.37h0L-46-65l1.55.38h0l1.55.37h0l1.54.38,1.55.37,1.55.38,1.55.37h0l1.54.38,1.55.38,1.55.37,1.55.38h0l1.54.37,1.55.38h0l1.55.38h0l1.54.37,1.55.38,1.55.37,1.55.38h0l1.54.37,1.55.38,1.55.38,1.54.37h0l1.55.38h0l1.55.37h0l1.55.38h0l1.54.38h0l1.55.37,1.55.38h0l1.55.37h0l1.54.38,1.55.37L2-53.37,3.54-53h0l1.55.37h0l1.55.38h0l1.55.37,1.54.38h0l1.55.38,1.55.37h0l1.55.38h0l1.54.37,1.55.38,1.55.37,1.54.38h0l1.55.38h0l1.55.37h0l1.55.38,1.54.37h0L28.3-47l1.55.37h0l1.54.38h0l1.55.38,1.55.37L36-45.1h0l1.54.37h0l1.55.38h0l1.55.38h0l1.55.37,1.54.38h0l1.55.37,1.55.38h0l1.54.37h0l1.55.38,1.55.38,1.55.37,1.54.38h0l1.55.37,1.55.38h0l1.54.38,1.55.37h0l1.55.38,1.55.37h0l1.54.38,1.55.37h0l1.55.38,1.55.38h0l1.54.37h0l1.55.38,1.55.37h0l1.54.38h0l1.55.38,1.55.37h0l1.55.38,1.54.37,1.55.38,1.55.37,1.54.38,1.55.38h.18l-.14.06-1.19.54h0l-1.2.53-1.2.53-1.2.54-1.19.53-1.2.53-1.2.53L79.1-28l-.6.27-.6.24-1.21.5-1.21.5h0l-1.21.5h0l-1.21.5L71.84-25l-1.21.5h0l-1.21.5h0l-1.21.5L67-23h0l-1.21.49h0l-1.21.5-1.21.5-1.21.5h0L61-20.5h0L59.74-20l-1.22.5-1.21.5h0l-1.21.5h0l-1.21.5-1.21.49h0l-1.21.5h0l-1.21.5h0l-1.21.5-1.21.5h0L47.63-15h0l-1.22.5L45.2-14l-1.21.5h0l-1.21.5h0l-1.21.49-1.21.5h0l-1.21.5h0l-1.21.5h0l-1.21.5L35.52-10h0l-1.22.5h0L33.09-9h0l-1.21.5L30.67-8h0l-1.21.49h0l-1.21.5L27-6.56l-1.21.5h0l-1.21.5h0l-1.21.49-1.21.5h0L21-4.07h0l-1.21.5-1.21.5-1.21.49h0l-1.21.5h0l-1.21.5-1.21.5-1.21.5L11.3-.09h0l-1.21.5L8.87.91l-1.21.5-1.21.5h0L5.24,2.4,4,2.9l-1.21.5h0l-1.21.5L.4,4.4h0l-1.21.49L-2,5.39h0l-1.21.5-1.22.5-1.21.5-1.21.49-1.21.5-1.21.5-1.21.5-1.21.5-1.21.49-1.21.5-1.21.5-1.22.5-1.21.5-.58.24.82.37,1.7.78,1.71.79,1.7.78,1.71.78h0l1.7.78,1.7.78L-5.6,18h0l1.7.78h0l1.7.78h0l1.71.78h0l1.7.78h0l1.7.78.54.25-.34.26L2,23.19.93,24l-1.09.81-1.09.82h0l-1.09.81h0l-1.09.82-1.09.81h0l-1.08.82-1.09.81-1.09.82-1.09.81-1.09.82h0L-11,33l-1.09.82-1.09.81-1.09.82-1,.73-.18-.1-1.79-1h0l-1.8-1-1.8-1-1.8-1h0Zm31,7.56-1.18.59-1.18.59L3,40.3l-1.18.58-1.18.59-1.17.59-1.18.59-1.18.58-1.17.59-1.18.59L-6.42,45l-1.17.59-1.18.59-1.18.59-1.17.58-1.18.59-1.18.59-1.17.59-1.18.58-1.18.59-1.17.59-1.18.58-1.18.59-1.17.59-1.18.59-1.18.58-1.17.59-1.18.59-1.18.59-1.17.58-1.18.59-1.18.59-1.17.58-1.18.59-1.18.59-1.17.59-1.18.58-1.17.59-1.18.59-1.18.59-1.17.58-1.18.59-1.18.59-1.17.59-1.18.58-1.18.59-1.17.59-1.18.58-1,.53,1-.67,1.11-.76,1.12-.75,1.11-.76,1.11-.75,1.11-.75,1.12-.76,1.11-.75,1.11-.76,1.11-.75,1.12-.75,1.11-.76,1.11-.75,1.11-.76,1.12-.75,1.11-.75,1.11-.76,1.11-.75L-30,53l1.11-.76,1.11-.75,1.11-.76,1.12-.75,1.11-.75,1.11-.76,1.11-.75,1.12-.76,1.11-.75,1.11-.75,1.11-.76,1.12-.75,1.11-.76,1.11-.75,1.11-.75,1.12-.76,1.11-.75,1.11-.75,1.11-.76,1.12-.75,1.11-.76,1.11-.75,1.11-.75,1.12-.76,1.11-.75L-1,33.4l1.11-.75.66-.44.46-.31h0l1.11-.76,1.11-.75,1.11-.76h0l1.12-.75,1-.7.08-.05h0l1.11-.76,1.11-.75h0l1.12-.75h0l1.11-.76,1.11-.75,1.11-.76h0l1.12-.75h0l1.11-.75.71-.48-1.09-.51h0l-1.71-.8h0l-1.71-.8h0l-1.71-.79h0l-1.71-.8-1.71-.8h0L5,16.35H5l-1.71-.8h0l-1.71-.8h0L-.11,14l-1.75-.78h0l-1.71-.8h0l1.2-.54,1.2-.53h0L0,10.78H0l1.15-.6,1.2-.53,1.2-.53,1.19-.53,1.2-.54.65-.29.55-.24L8.33,7h0l1.19-.54,1.2-.53,1.2-.53h0l1.2-.54h0l1.19-.53,1.2-.53h0l1.2-.54h0l1.2-.53h0l1.23-.54,1.2-.53h0l1.2-.54h0l1.2-.53L23.93.05l1.2-.54h0L26.33-1h0l1.2-.53,1.19-.54,1.2-.53h0l1.2-.53h0l1.2-.54h0l1.19-.53,1.2-.53h0l1.2-.53h0l1.23-.54h0l1.2-.53h0l1.2-.53h0l1.2-.54h0l1.19-.53h0l1.2-.53h0L44.33-9h0l1.2-.53h0l1.19-.53,1.2-.54h0l1.2-.53h0l1.2-.53h0l1.19-.53,1.2-.54h0l1.2-.53h0l1.2-.53h0l1.19-.54h0l1.2-.53h0l1.2-.53h0l1.2-.54,1.19-.53,1.2-.53h0l1.2-.53h0l1.2-.54,1.19-.53h0l1.2-.53h0l1.2-.54h0l1.2-.53h0l1.19-.53h0l1.2-.54h0l1.2-.53,1.2-.53,1.19-.54h0l1.2-.53h0l1.2-.53h0l1.2-.53L80.25-25h0l1.2-.53h0l1.2-.53h0l.54-.25.66-.29L85-27.14l1.2-.53h0l1.2-.54,1.2-.53.22-.1,1-.43,1.2-.54,1.2-.53,1.2-.53,1.19-.53,1.2-.54,1.2-.53,1.2-.53,1.19-.54,1.2-.53,1.2-.53,1.2-.54,1.19-.53,1.2-.53,1.2-.54,1.2-.53L109-37.8l1.2-.53,1.2-.54,1.2-.53.54-.24-.52.3-1.15.67-1.14.67-1.15.67-1.14.67-1.15.67-1.14.66-1.15.67-.52.31-.62.36h0l-1.15.67h0l-1.14.67L100-32l-1.14.67-1.15.67h0L96.61-30l-1.15.66h0l-1.14.67h0L93.17-28h0L92-27.3l-1.15.67h0L89.74-26l-.85.49-.3.18h0l-1.15.67h0l-1.14.67h0l-1.15.67h0L84-22.62h0l-1.15.67h0l-1.14.67h0l-1.15.67-1.14.67-1.15.67h0l-1.14.67h0L76-17.93h0l-1.14.67-1.15.66h0l-1.14.67h0l-1.15.67-1.14.67h0l-1.15.67L68-13.25h0l-1.15.67h0l-1.14.67-1.15.67-1.14.66h0l-1.15.67-1.14.67h0L60-8.57l-1.14.67h0l-1.15.67h0l-1.15.67-1.14.67-1.15.67h0l-1.14.66h0l-1.15.67-1.14.67-1.15.67h0l-1.14.67h0l-1.15.67-1.14.67L45.07.13h0L43.93.8h0l-1.15.66-1.14.67h0l-1.15.67h0l-1.14.67h0l-1.15.67-1.14.67-1.15.67h0l-1.14.67h0l-1.15.67-1.14.66-1.15.67-1.14.67h0L29,9.49l-1.14.67h0l-1.15.67h0l-1.15.67h0l-1.14.67h0l-1.15.67h0l-1.14.66L21,14.17l-.81.48,1.19.5,1.67.7h0l1.67.7h0l1.67.69h0l1.67.7h0l1.68.7h0l1.67.7h0l1.36.57.31.13,1.67.7h0l1.67.7,1.67.69h0l.75.32-.53.26h0l-1.17.59h0L36,23.88h0l-1.18.59h0l-1.17.59h0l-1.18.58h0l-1.18.59-1.17.59h0l-1.18.59h0L27.74,28l-1.17.59-1.18.59-1.18.59h0L23,30.34h0l-1.18.59-1.17.59h0l-1.18.58-1.18.59h0l-1.17.59h0L16,33.87h0l-1.18.58h0L13.63,35l-1.18.59h0l-1.18.59-1.17.58-1.18.59h0L7.74,38l-1,.52Zm152.16-1.87-.83,1.49L157,39.64l-.89,1.54h0l.32,3.49-.3.2-1.12.74-1.11.74-.55.36-.45.68h0l-.9,1.33-.89,1.33h0l-.63.94-.38.09h0l-1.29.28h0l-1.29.29-1.29.29-1.29.29h0l-1.29.29h0l-1.3.29-1.29.28h-.17l-3.57-8.71-1.17-.46h0l-1.66-.65-1.65-.65h0L131.22,42l-1.65-.64-1.66-.65h0L126.26,40h0l-1.65-.65h0L123,38.73h0l-1.65-.65-1.66-.65h0L118,36.79h0l-1.65-.65h0l-1-.4-.51.1-1.31.24h0l-1.31.25h0l-1.3.24h0l-1.31.24-1.31.25L107,37.3h0l-1.31.25h0l-1.31.24h0l-1,.19-.44-.27h0l-1.79-1.09h0l-1.82-1.1h0L97.5,34.43h0l-1.83-1.09h0l-1.82-1.1h0L92,31.18h0l-1.83-1.09h0L88.37,29h0L86.55,27.9h0l-1.83-1.09h0l-.5-.31-.16,2.22h0l-.23,3.05h0l-.23,3.06h0l-.22,3.05h0l-.23,3.06h0L82.92,44l-.22,3h0l-.23,3.06h0l-.23,3.12h0L82,56.24h0l-.23,3.06h0l-.23,3.05h0l-.22,3.06h0l-.23,3h0l-.23,3.06h0l-.22,3h0l-.23,3.06h0l-.23,3.06h0L80,83.54l0,0-1,.93-1,.93h0l-1,.93h0l-1,.94-1,.93-1,.93h0l-1,.93h0l-1,.93h0l-1,.94-1,.93h0l-1,.93h0l-1,.93h0l-1,.93h0l-1.05.94h0l-1,.93-1,.93h0l-1.05.93h0l-1,.93h0l-1,.94h0l-1,.93h0l-1,.93h0l-1,.93h0l-1,.93-1,.94-1,.93-1,.93h0l-.81.72-.69-1h0l-3-4.25h0l-3-4.26h0l-3-4.25h0l-3-4.26-3-4.25-3-4.26h0l-3-4.25-3-4.26h0l-3-4.26-3-4.25h0l-3-4.26-3-4.25h0l-3-4.26-3-4.25h0L8.08,45l.84-.36,1.2-.53h0l1.2-.53h0l1.2-.52,1.2-.53h0l1.2-.53h0l1.2-.52h0l1.2-.53h0l1.2-.53,1.2-.52,1.2-.53h0l1.2-.53,1.2-.52,1.2-.53,1.2-.53,1.2-.52,1.2-.53,1.2-.53,1.2-.52,1.2-.53h0l1.2-.53h0l1.19-.52h0L35.3,33h0l1.2-.53h0L37.7,32h0l1.2-.53,1.2-.53,1.2-.53,1.2-.52,1.2-.53,1.2-.53,1.2-.52h0l1.2-.53,1.2-.53,1.2-.52h0l1.2-.53h0l1.2-.53h0l1.2-.52h0l1.2-.53h0l1.2-.53h0l.48-.21-.69-.33h0l-1.72-.84L52,21.85h0L50.32,21l-1.73-.84h0l-1.72-.84h0l-1.72-.83h0l-1.73-.84h0l-1.63-.79-.09-.05h0L40,16h0l-1-.51.67-.46h0l1.11-.76h0l1.11-.77h0l1.1-.76L44.07,12l1.11-.76h0l1.11-.77h0l1.11-.76,1.11-.77h0l-.37-.72h0l1.11-.77h0l1.11-.76,1.11-.77h0l1.11-.76h0l1.1-.77h0l1.11-.76,1.11-.77h0L57,2.06l1.11-.77h0L59.23.53h0l1.1-.77h0L61.44-1l1.11-.77h0l1.11-.76h0l1.11-.76,1.1-.77L67-4.82h0l1.11-.77h0l1.11-.76,1.11-.77,1.11-.76h0l1.1-.77h0l1.11-.76,1.11-.77h0l1.11-.76h0L77-11.71h0l1.1-.76h0l1.11-.77h0L80.28-14l1.11-.77,1.11-.76h0l1.11-.77,1.1-.76h0l1.11-.77h0l1.11-.76h0L88-19.36l.8-.55.31-.21,1.1-.77h0l1.11-.76h0l1.11-.77h0l1.11-.76h0l1.11-.77h0l1.11-.76h0l1.1-.77h0L98-26.24h0L99.12-27l1.11-.76h0l1.11-.77,1.11-.76,1.1-.77,1.11-.76h0l1.11-.77,1.11-.76,1.11-.77h0l1.1-.76,1-.7-.59,1.78h0l-.66,2h0l-.65,2h0l-.66,1.95h0l-.65,2h0l-.4,1.2,1.44,1.49h0l2.33,2.43h0l2.34,2.42h0l2.34,2.42h0l2.33,2.43h0L119.6-10l2.34,2.43h0l2.34,2.43h0l2.33,2.42,1.82,1.89,2.28,8.33,2,2L135,11.69h0l2.27,2.24h0l2.26,2.23,2.26,2.24L144,20.64h0l2.26,2.24,2.27,2.24,2.26,2.23.33.33,1.32.31,1.54.36,1.54.36h0l.22.05,3.63,6.69Z" transform="translate(128.92 89.13)"/><polygon class="cls-3" points="281.92 120.53 281.71 120.51 280.97 120.46 280.23 120.4 279.49 120.35 278.76 120.29 278.02 120.24 277.28 120.19 276.61 120.14 276.46 120.01 274.84 118.76 273.23 117.51 271.62 116.26 270.01 115.01 268.4 113.75 266.78 112.5 265.83 111.76 266.23 112.7 267.2 114.99 268.17 117.29 269.15 119.58 270.12 121.87 271.1 124.17 272.07 126.46 272.68 127.9 270.77 125.64 265.62 119.54 260.47 113.43 255.32 107.33 250.17 101.23 245.02 95.13 239.88 89.03 239.66 88.77 239.9 90.01 240.14 91.31 240.39 92.61 240.64 93.91 240.89 95.2 241.13 96.5 241.38 97.8 241.63 99.1 241.88 100.39 242.12 101.69 242.37 102.99 242.62 104.29 242.86 105.58 243.11 106.88 243.36 108.18 243.61 109.48 243.85 110.77 244.1 112.07 244.35 113.37 244.59 114.67 244.84 115.96 245.09 117.26 245.34 118.56 245.56 119.75 246.57 120.25 247.67 120.8 248.77 121.34 249.86 121.89 250.96 122.43 252.05 122.98 253.15 123.52 254.25 124.07 255.34 124.61 256.44 125.15 257.53 125.7 258.63 126.24 259.73 126.79 260.82 127.33 261.92 127.88 263.01 128.42 264.11 128.97 265.21 129.51 266.3 130.05 267.4 130.6 268.49 131.14 269.51 131.65 271.87 135.77 272.34 136.6 272.44 136.56 273 136.37 273.56 136.17 274.12 135.98 274.68 135.79 275.24 135.6 275.79 135.4 276.35 135.21 276.91 135.02 277.47 134.82 278.03 134.63 278.59 134.44 279.14 134.24 279.7 134.05 280.26 133.86 280.74 133.69 280.77 133.6 280.98 132.93 281.19 132.26 281.41 131.6 281.62 130.93 281.83 130.26 282.04 129.59 282.25 128.93 282.47 128.26 282.68 127.59 282.89 126.92 283.1 126.26 283.32 125.59 283.53 124.92 283.74 124.25 283.76 124.18 282.36 121.41 281.92 120.53"/><polygon class="cls-4" points="242.01 49.46 125.26 101.43 145.23 110.75 77.89 156.38 167.71 111.55 149.06 103.75 242.01 49.46"/></svg>