<svg id="Pegasus_logo" data-name="Pegasus logo" xmlns="http://www.w3.org/2000/svg" xmlns:xlink="http://www.w3.org/1999/xlink" viewBox="0 0 292.8 302.25"><defs><style>.cls-1{fill:#fff;}.cls-2{fill:url(#Degradado_sin_nombre_122);}.cls-3{fill:url(#Degradado_sin_nombre_250);}</style><radialGradient id="Degradado_sin_nombre_122" cx="319.93" cy="-48.82" r="515.11" gradientUnits="userSpaceOnUse"><stop offset="0.17" stop-color="gray"/><stop offset="0.22" stop-color="#797979"/><stop offset="0.3" stop-color="#656565"/><stop offset="0.39" stop-color="#454545"/><stop offset="0.49" stop-color="#181818"/><stop offset="0.53"/><stop offset="0.55" stop-color="#1a1a1a"/><stop offset="0.62" stop-color="#6a6a6a"/><stop offset="0.68" stop-color="#aaa"/><stop offset="0.73" stop-color="#d8d8d8"/><stop offset="0.77" stop-color="#f4f4f4"/><stop offset="0.79" stop-color="#fff"/></radialGradient><linearGradient id="Degradado_sin_nombre_250" x1="258.28" y1="44.46" x2="263.62" y2="143.12" gradientUnits="userSpaceOnUse"><stop offset="0.41" stop-color="#969696"/><stop offset="0.5" stop-color="#838383"/><stop offset="0.67" stop-color="#525252"/><stop offset="0.92" stop-color="#030303"/><stop offset="0.93"/></linearGradient></defs><g id="rayo"><polygon class="cls-1" points="241.94 49.45 125.18 101.43 145.15 110.74 77.81 156.38 167.64 111.54 148.98 103.75 241.94 49.45"/></g><path id="horse" class="cls-2" d="M314.68,141.41l-3.9-7.17-.94-1.74h0l0-.05-1.53-.36h0l-1.54-.36-1.54-.36-.66-.16-1.3-1.28L301,127.69h0l-2.27-2.24h0l-2.26-2.24L294.19,121h0l-2.27-2.23h0l-2.26-2.23h0l-2.27-2.24-1.72-1.71-1.21-5.91-.75-3.7-1.12-1.16h0l-2.33-2.42h0l-2.34-2.43h0l-2.34-2.43h0l-2.34-2.43h0l-2.33-2.43h0l-2.34-2.43h0l-2.34-2.42-1.49-1.56.46-1.12h0l.73-1.75h0l.73-1.74h0l.73-1.75h0l.73-1.75.73-1.75.27-.63.47-1.11.73-1.75.73-1.75.73-1.75.73-1.74.73-1.75.73-1.75.57-1.38L248.06,70.2l-18.77-4.87-1.56-.4h0l-1.55-.41h0l-1.56-.4-1.56-.4h0l-1.56-.41-1.56-.4h0l-1.55-.41h0l-1.56-.4h0l-1.56-.4-1.56-.41-1.56-.4h0l-1.55-.41-1.56-.4-1.56-.4h0l-1.56-.41-1.56-.4-1.55-.41-1.56-.4h0l-1.56-.4-1.56-.41-1.56-.4h0l-1.55-.4L193.46,56l-1.56-.4-1.56-.41h0l-1.56-.4h0l-1.56-.4h0L185.67,54h0l-1.56-.4-1.56-.41-1.56-.4-1.56-.4h0L177.88,52h0l-1.56-.4h0l-1.56-.4h0l-1.56-.41-1.56-.4h0L170.09,50h0l-1.56-.4h0l-1.56-.4h0l-1.56-.41h0l-1.56-.4h0L162.3,48l-1.56-.4h0l-1.56-.4-1.56-.41h0l-1.56-.4h0l-1.55-.41h0l-1.56-.4-1.56-.4-1.56-.41h0l-1.56-.4h0l-1.55-.4h0l-1.56-.41h0l-1.56-.4h0L142,42.71h0l-1.56-.4h0l-1.55-.4h0l-1.56-.41h0l-1.56-.4-1.56-.41h0l-1.56-.4-1.55-.4h0l-1.56-.41h0l-1.56-.4h0l-1.56-.4h0l-1.56-.41h0l-1.55-.4h0l-1.56-.41-1.56-.4h0l-1.56-.4h0l-1.56-.41h0l-1.55-.4h0L114,35.44h0l-1.56-.4h0l-1.56-.4-1.56-.41h0l-1.55-.4h0l-1.23-.32-.33-.09-1.56-.4-1.56-.4-1.56-.41-1.55-.4-1.56-.4L96.86,31l-1.56-.4-1.56-.41-1.55-.4-1.56-.4L89.07,29l-1.56-.4L86,28.17l-1.55-.4-1.56-.4L81.28,27l-1.56-.4-1.56-.4-1.55-.41-1.56-.4-1.56-.41-1.56-.4-1.56-.4-1.56-.41-1.55-.4-1.56-.41-1.56-.4-1.56-.4L61,21.71l-1.55-.4-1.56-.4-1.56-.41-1.56-.4-1.56-.41-1.55-.4-1.56-.4-1.56-.41-1.18-.3,4,7.72,5.32,10.17L59,40.33l3.09,5.91h0l5.32,10.18h0l5.31,10.17h0L78,76.76h0l5.16,9.88-1.33.07-1.37.08-1.38.08-1.37.07h0L76.34,87h0L75,87.1h0l-1.38.07-1.37.08-1.37.08-1.38.07-1.37.08h0l-1.37.08-1.38.07h0L64,87.71l-1.37.08-1.38.07-1.37.08L59,88l-.47,0-1.37.07-1.38.08-1.37.08L53,88.32l-1.38.08-1.37.08-1.37.07-1.38.08-1.37.08-1.37.07-1.38.08L42,88.94,40.64,89l-1.38.08-1.37.08-1.37.07-1.37.08-1.38.08-1.37.07L31,89.55l-1.38.08-1.37.07L22.54,90,30,94.23l1.79,1,1.79,1,1.79,1,1.79,1,1.79,1,1.79,1,1.79,1,1.79,1,1.79,1,1.79,1,1.79,1,1.79,1,1.79,1,1.79,1,1.79,1,1.78,1,.31.17,1.48.83,1.79,1h0l1.79,1,1.79,1,1.79,1h0l1.79,1,1.79,1h0l1.79,1h0l1.79,1,1.79,1,1.79,1,1.79,1h0l1.79,1h0l1.79,1,1.79,1,1.79,1h0l1.79,1,1.79,1,1.79,1h0l1.79,1h0l1.79,1,1.79,1,1.79,1h0l1.79,1,1.79,1,1.78,1,1.79,1h0l1.79,1,1.79,1,1.79,1h0l1.79,1h0l1.79,1,1.79,1h0l1.77,1,1.79,1,1.79,1,1.79,1,1.79,1,1.55.88-.94.7-1.09.82-1.09.81-1.09.82-1.09.81-1.09.82-1.09.81-1.09.82-1.08.81-1.09.82-1.09.81-1.09.81-1.09.82-1.09.81-1.09.82-1.09.81-1.09.82-1.09.81-1.08.82-1.09.81-1.09.82-1.09.81-1.09.82-1.09.81-1.09.82-1.09.81L99,171.3l-1.09.81-1.09.82-1.08.81-1.09.82-1.09.81-1.09.82-1.09.81-1.09.81-1.09.82-1.09.81-1.09.82-1.09.81-1.08.82-1.09.81-1.09.82-1.09.81-1.09.82-1.09.81-1.09.82-1.09.81-.49.37.54-.24,1.2-.52,1.21-.52,1.2-.52,1.2-.52,1.2-.53,1.2-.52,1.2-.52,1.21-.52L88,183l1.2-.53,1.2-.52,1.2-.52,1.2-.52,1.21-.52,1.2-.53,1.2-.52,1.2-.52,1.2-.52,1.2-.53,1.21-.52,1.2-.52,1.2-.52,1.2-.52,1.2-.53,1.21-.52,1.2-.52,1.2-.52,1.2-.52,1.2-.53,1.2-.52,1.21-.52,1.2-.52,1.2-.52,1.2-.53,1.2-.52,1.2-.52,1.21-.52,1.2-.52,1.2-.53,1.2-.52,1.2-.52,1.2-.52,1.21-.52,1.2-.53,1.2-.52,1.2-.52,1.2-.52,1.2-.52,1.21-.53,1.2-.52,1.2-.52,1.2-.52,1.2-.52,1.2-.53,1.21-.52,1.2-.52,1.2-.52,1.2-.52,1.2-.53,1.2-.52.15-.06,2.8,4.06,3.17,4.61,2.57,3.73.61.89h0l3.18,4.61h0l3.18,4.62,3.18,4.61,3.18,4.61h0l3.17,4.62,3.18,4.61h0l3.18,4.61,3.18,4.62h0l3.18,4.61h0l3.17,4.61h0l.06.08,3.12,4.54,3.18,4.61,3.18,4.61,1.77,2.58.45-.46,1-1,1-1,1-1,1-1,1-1,1-1,1-1,1-1,1-1,1-1,1-1,1-1,1-1,1-1,1-1,1-1,1-1,1-1,1-1,1-1,.9-.91.11-.11h0l1-1h0l1-1,1-1h0l1-1h0l1-1h0l1-1,1-1,1-1,1-1h0l1-1h0l1-1h0l1-1,1-1h0l1-1h0l.72-.73,0-1h0l.13-3.32h0l.12-3.32h0l.13-3.31h0l.13-3.32h0l.12-3.31h0l.13-3.32h0l.13-3.31h0l.12-3.32h0l.13-3.32h0l.13-3.31h0l.12-3.32h0l.13-3.31h0l.12-3.32h0l.13-3.31h0l.13-3.32h0l.09-2.44.47.25,1.76.94h0l1.77.94h0l1.76.94h0l1.77.94,1.76.94h0l1.76.94h0l1.77.94,1.76.94h0l1.08.57.51-.09h0l1.31-.24h0l1.31-.25,1.31-.24,1.31-.24h0l1.3-.25,1.31-.24,1.31-.24h0l1.31-.25.17,0,1.43.55h0l1.64.62h0l1.64.62h0l1.65.62h0l1.64.62h0l1.64.62,1.64.62h0l1.64.62h0l1.64.62h0l1.65.63,1.64.62h0l.78.29,4.26,9.66.18,0h0l1.29-.28h0l1.29-.29,1.29-.29h0l1.29-.29h0l1.3-.29,1.29-.28h0l1.29-.29,1.29-.29,1.29-.29h0l1.29-.29,1.3-.28h0l.06,0,.85-1.26h0l.89-1.33.89-1.33.69-1,.25-.17,1.12-.74,1.12-.74.61-.41.5-.33.8-.53-.13-1.39-.3-3.24.27-.48.83-1.5.82-1.49.83-1.49.83-1.5.11-.2Zm-187.76-3.14h0l-.82-.47.52-.3,1.15-.66,1.15-.67,1.14-.66,1.15-.66,1.15-.67,1.15-.66,1.14-.67,1.15-.66,1.15-.67,1.14-.66,1.15-.66,1.15-.67.61-.35-.68.18-1.28.33-1.27.33h0l-1.27.33-1.28.33h0L134,131l-1.28.33-1.27.33-1.28.33h0l-1.27.34-1.28.33-1.27.33h0l-1.28.33-1.27.34-1.28.33-1.27.33-1.28.33-1.27.34-.84.22-.62-.36-1.8-1.06-1.81-1.05-1.81-1.06-1.81-1-1.81-1.06h0l-1.81-1.05-1.8-1h0l-1.8-1.06h0l-1.81-1.05-1.81-1.06h0l-1.81-1-1.81-1.06-1.81-1h0l-1.8-1-1.81-1.06h0l-1.81-1-1.81-1.06-1.81-1-1.81-1.06h0l-1.8-1-1.81-1-1.81-1.06-1.81-1-1.81-1.06-1.81-1-1.8-1.06h0l-1.81-1-1.81-1.05-1.81-1.06h0l-1.81-1.05-1.81-1.06-1.8-1.05h0l-.37-.22.27,0,1.36-.11,1.37-.11h0l1.36-.11h0l1.36-.11,1.36-.11h0l1.36-.11h0l1.36-.11,1.36-.11,1.36-.11,1.36-.11h0l1.36-.11,1.36-.11h0l1.36-.11h0l1.36-.11,1.36-.11L81,99.13h0L82.36,99l1.36-.11,1.36-.11,1.36-.11,1.36-.11,1.36-.11,1.36-.11h0l1.36-.11h0l1.36-.11L94.6,98,96,97.92l1.36-.11,1.36-.11,1.36-.11,1.36-.11,1.36-.11h0l1.36-.11,1.36-.11h0l1.36-.11h0l1.36-.11,1.36-.11,1.37-.11,1.36-.11h0l1.36-.11,1.36-.11,1.36-.11,1.36-.11h0l1.36-.11,1.36-.11h0l1.36-.11h0l1.36-.11,1.36-.11,1.36-.11,1.36-.11h0l1.36-.11,1.36-.11,1.36-.11,1.36-.11h0l1.36-.11,1.36-.11h0l1.36-.11,1.36-.11,1.36-.11,1.36-.11,1.36-.11h0l1.36-.11,1.36-.11h0l1.36-.11h0l1.36-.11h0l1.36-.11,1.36-.11h0l1.36-.11h0l1.36-.11,1.36-.11,1.36-.11,1.36-.11h0l1.36-.11,1.36-.11h0l1.37-.11,1.36-.11h0l1.36-.11,1.36-.11h0l1.36-.11,1.36-.11,1.36-.11h0l1.36-.11,1.36-.11h0l1.36-.11h0l1.36-.11h0l1.36-.11h0l1.36-.11h0l1.36-.11,1.36-.11h0l1.36-.11,1.36-.11h0l1.36-.11h0l1.36-.11,1.36-.11h0l1.36-.11,1.36-.11h0l1.36-.11h0l1.36-.11h0l.71-.06-.74,0-1.42,0-1.43,0h0l-1.42,0h0l-1.42-.06-1.43,0L184,89.71l-1.42,0h0l-1.42-.06-1.43,0-1.42,0-1.42,0-1.43-.06-1.42,0h0l-1.42,0h0l-1.42-.05h0l-1.43-.06-1.42-.05-1.42,0L165.47,89l-1.42,0h0l-1.42,0h0l-1.42,0h0l-1.43-.06-1.42,0-1.42-.05-1.43,0-1.42-.06-1.42,0h0l-1.42,0-1.43,0-1.42-.06-1.42,0-1.43,0-1.42-.05-1.42-.06h0l-1.42-.05-1.43,0h0L138.44,88h0L137,88h0l-1.43,0h0l-1.42,0-1.42-.06-1.42,0-1.43-.05-1.42,0-1.42-.06h0l-1.43,0h0l-1.42,0h0l-1.42,0-1.42-.06-1.43,0-1.42,0-1.42-.05-1.43-.06h0l-1.42-.05-1.42,0L111.41,87,110,87l-1.42,0-1.42,0-1.43-.06h0l-1.42,0-1.42-.05-1.42,0L100,86.6h-.15l-3.74-6.48h0l-4.2-7.26h0l-4.2-7.25h0l-4.19-7.26h0l-4.2-7.26h0l-4.19-7.26h0L71,36.57h0l-1.77-3.06.65.16,1.55.37,1.55.38h0l1.55.38h0l1.54.37,1.55.38,1.55.37h0l1.54.38h0l1.55.38,1.55.37,1.55.38h0l1.54.37,1.55.38h0l1.55.37,1.55.38h0l1.54.38,1.55.37,1.55.38,1.54.37h0l1.55.38,1.55.38,1.55.37h0l1.54.38h0l1.55.37,1.55.38h0l1.54.37h0l1.55.38,1.55.38,1.55.37,1.54.38h0l1.55.37,1.55.38,1.55.38,1.54.37h0l1.55.38,1.55.37h0l1.54.38h0l1.55.37,1.55.38,1.55.38,1.54.37h0l1.55.38,1.55.37,1.54.38,1.55.37h0l1.55.38h0L141,51h0l1.54.37h0l1.55.38h0l1.55.37,1.55.38h0l1.54.38h0l1.55.37,1.55.38,1.54.37,1.55.38h0l1.55.37h0l1.55.38h0l1.54.38,1.55.37h0l1.55.38,1.54.37h0l1.55.38h0l1.55.38,1.55.37,1.54.38,1.55.37h0l1.55.38h0l1.55.37h0l1.54.38,1.55.38h0l1.55.37,1.54.38h0l1.55.37h0l1.55.38,1.55.38,1.54.37h0l1.55.38h0l1.55.37h0l1.54.38h0l1.54.37,1.55.38h0l1.55.38,1.54.37h0l1.55.38h0l1.55.37,1.55.38,1.54.37,1.55.38h0l1.55.38,1.54.37h0l1.55.38,1.55.37h0l1.55.38,1.54.38h0l1.55.37,1.55.38h0l1.55.37,1.54.38h0l1.55.37h0l1.55.38,1.54.38h0l1.55.37h0l1.55.38,1.55.37h0l1.54.38,1.55.38,1.55.37,1.54.38,1.55.37L240,75l.18,0-.14.07-1.2.53h0l-1.19.53-1.2.53-1.2.54-1.2.53-1.19.53-1.2.54-1.2.53-.6.27-.6.25-1.21.49-1.22.5h0l-1.21.5h0l-1.21.5-1.21.5-1.21.49h0l-1.21.5h0l-1.21.5-1.21.5h0l-1.21.5h0l-1.21.49-1.22.5-1.21.5h0l-1.21.5h0l-1.21.5-1.21.49-1.21.5h0l-1.21.5h0l-1.21.5-1.21.5h0l-1.21.49h0l-1.21.5h0l-1.22.5-1.21.5h0l-1.21.5h0l-1.21.49-1.21.5-1.21.5h0l-1.21.5h0l-1.21.5-1.21.49h0l-1.21.5h0l-1.22.5h0l-1.21.5-1.21.5h0l-1.21.49h0l-1.21.5h0l-1.21.5-1.21.5h0l-1.21.5h0l-1.21.49-1.21.5-1.21.5h0l-1.22.5h0l-1.21.5-1.21.49h0l-1.21.5h0l-1.21.5-1.21.5-1.21.5h0l-1.21.49h0l-1.21.5-1.21.5-1.22.5-1.21.5h0l-1.21.49-1.21.5-1.21.5-1.21.5h0l-1.21.5-1.21.49-1.21.5h0l-1.21.5-1.21.5h0l-1.22.5-1.21.49h0l-1.21.5-1.21.5-1.21.5-1.21.5-1.21.49-1.21.5-1.21.5-1.21.5-1.22.5-1.21.49-1.21.5-1.21.5-1.21.5-.58.24.82.38,1.7.78,1.71.78,1.7.78,1.7.78h0l1.71.78,1.7.79,1.7.78h0l1.71.78h0l1.7.78h0l1.7.78h0l1.71.79h0l1.7.78.54.25-.35.25-1.08.82-1.09.81-1.09.82-1.09.81h0l-1.09.82h0l-1.09.81-1.09.82h0l-1.09.81-1.09.82-1.09.81-1.08.82-1.09.81h0l-1.09.82-1.09.81-1.09.81-1.09.82-1,.73-.18-.1-1.8-1h0l-1.8-1-1.79-1-1.8-1h0Zm31,7.57-1.17.58-1.18.59-1.18.59-1.17.59-1.18.58-1.18.59-1.17.59-1.18.59-1.18.58-1.17.59-1.18.59-1.18.58-1.17.59-1.18.59-1.18.59-1.17.58-1.18.59-1.18.59-1.17.59-1.18.58-1.18.59-1.17.59-1.18.58-1.18.59-1.17.59-1.18.59-1.18.58-1.17.59-1.18.59-1.18.59-1.17.58-1.18.59-1.17.59-1.18.58-1.18.59-1.17.59-1.18.59-1.18.58-1.17.59-1.18.59-1.18.59-1.17.58-1.18.59-1.18.59-1.17.58-1.18.59-1.18.59-1.17.59-1.06.52,1-.67,1.11-.76,1.11-.75,1.12-.75,1.11-.76,1.11-.75,1.11-.76,1.12-.75,1.11-.75,1.11-.76,1.11-.75,1.12-.75,1.11-.76,1.11-.75,1.11-.76,1.12-.75,1.11-.75,1.11-.76,1.11-.75,1.12-.76,1.11-.75,1.11-.75,1.11-.76,1.12-.75,1.11-.76,1.11-.75,1.11-.75,1.12-.76,1.11-.75,1.11-.75,1.11-.76,1.12-.75,1.11-.76,1.11-.75,1.11-.75,1.12-.76,1.11-.75,1.11-.76,1.11-.75,1.12-.75,1.11-.76L147,143l1.11-.76,1.12-.75,1.11-.75,1.11-.76.66-.44.45-.31h0l1.12-.75,1.11-.76,1.11-.75h0l1.11-.76,1-.7.08,0h0l1.11-.75,1.11-.76h0l1.11-.75h0l1.12-.76,1.11-.75,1.11-.75h0l1.11-.76h0l1.12-.75.7-.48-1.08-.51h0l-1.71-.8h0l-1.71-.79h0l-1.71-.8h0l-1.71-.8-1.71-.79h0l-.05,0-1.66-.77h0l-1.71-.8h0l-1.71-.79h0l-1.71-.8-1.71-.8h0l-1.71-.8-.08,0,.06,0,1.2-.53,1.19-.54h0l1.2-.53h0l1.2-.53,1.2-.54,1.19-.53,1.2-.53,1.2-.54L158,115l.55-.24,1.19-.53h0l1.2-.53,1.2-.54,1.2-.53h0l1.19-.53h0l1.2-.54,1.2-.53h0l1.2-.53h0l1.19-.54h0l1.2-.53,1.2-.53h0l1.19-.53h0l1.2-.53,1.2-.53,1.2-.53h0l1.19-.54h0l1.2-.53,1.2-.53,1.2-.54h0l1.19-.53h0l1.2-.53h0l1.2-.54,1.2-.53h0l1.19-.53h0l1.2-.53h0l1.2-.54h0l1.2-.53h0l1.19-.53h0l1.2-.54h0l1.2-.53h0l1.2-.53h0l1.19-.54h0l1.2-.53,1.2-.53h0l1.2-.54h0l1.19-.53h0l1.2-.53,1.2-.53h0l1.2-.54h0l1.19-.53h0l1.2-.53h0l1.2-.54h0l1.2-.53h0l1.19-.53,1.2-.54,1.2-.53h0l1.2-.53h0l1.19-.54,1.2-.53h0l1.2-.53h0l1.2-.53h0l1.19-.54h0l1.2-.53h0l1.2-.53h0l1.2-.54,1.19-.53,1.2-.53h0l1.2-.54h0l1.2-.53h0l1.19-.53,1.2-.54h0l1.2-.53h0l1.2-.53h0l.54-.24.65-.29,1.2-.54,1.2-.53h0l1.2-.53,1.19-.54.23-.1,1-.43,1.2-.53,1.2-.54,1.19-.53,1.2-.53,1.2-.53,1.2-.54,1.19-.53,1.2-.53,1.2-.54,1.2-.53,1.19-.53,1.2-.54,1.2-.53,1.19-.53,1.2-.54,1.2-.53,1.2-.53,1.19-.53,1.2-.54.55-.24-.52.3-1.15.67-1.14.67-1.15.67-1.14.67-1.15.67-1.15.67-1.14.67-.53.3-.62.37h0l-1.14.66h0l-1.15.67-1.14.67-1.15.67-1.14.67h0l-1.15.67-1.14.67h0l-1.15.67h0l-1.14.67h0l-1.15.66-1.14.67h0l-1.15.67-.84.49-.3.18h0l-1.15.67h0l-1.14.67h0l-1.15.67h0l-1.14.67h0l-1.15.67h0L233,86h0l-1.15.67-1.14.67L229.6,88h0l-1.14.67h0l-1.15.67h0l-1.15.67-1.14.67h0l-1.15.67h0l-1.14.66-1.15.67h0l-1.14.67-1.15.67h0l-1.14.67h0l-1.15.67-1.14.67-1.15.67h0l-1.14.67-1.15.66h0l-1.14.67-1.15.67h0L209,100h0l-1.15.67-1.14.67-1.15.67h0l-1.14.67h0l-1.15.67-1.14.66-1.15.67h0l-1.14.67h0l-1.15.67-1.14.67-1.15.67h0l-1.15.67h0l-1.14.67-1.15.67h0l-1.14.67h0l-1.15.66h0l-1.14.67-1.15.67-1.14.67h0l-1.15.67h0l-1.14.67-1.15.67-1.14.67-1.15.67h0l-1.14.66-1.15.67h0l-1.14.67h0l-1.15.67h0l-1.14.67h0l-1.15.67h0l-1.14.67-1.15.67-.82.47,1.2.5,1.67.7h0l1.67.7h0l1.67.7h0l1.67.7h0l1.67.69h0l1.67.7h0l1.36.57.32.13,1.67.7h0l1.67.7,1.67.7h0l.75.31-.53.26h0l-1.18.59h0l-1.17.59h0l-1.18.58h0l-1.18.59h0l-1.17.59h0l-1.18.58-1.18.59h0l-1.17.59h0l-1.18.59-1.17.58-1.18.59-1.18.59h0l-1.17.59h0l-1.18.58-1.18.59h0l-1.17.59-1.18.58h0l-1.18.59h0l-1.17.59h0l-1.18.59h0l-1.18.58-1.17.59h0l-1.18.59-1.18.59-1.17.58h0l-1.18.59-1.05.52ZM310,144l-.82,1.49-.83,1.49-.83,1.5h0l.32,3.48-.29.2-1.12.74-1.12.74-.54.36-.46.69h0l-.89,1.32-.89,1.33h0l-.63.94-.38.09h0l-1.29.29h0l-1.29.29-1.29.28-1.29.29h0l-1.3.29h0l-1.29.29-1.29.29h0l-.17,0-3.57-8.7-1.18-.47h0l-1.65-.65-1.65-.64h0l-1.65-.65-1.66-.65-1.65-.65h0l-1.65-.65h0l-1.65-.65h0l-1.66-.65h0l-1.65-.64-1.65-.65h0l-1.65-.65h0l-1.65-.65h0l-1-.4-.51.1-1.31.24h0l-1.31.25h0l-1.31.24h0l-1.31.25-1.31.24-1.3.24h0l-1.31.24h0l-1.31.24h0l-1,.19-.45-.27h0l-1.82-1.09h0l-1.82-1.1h0l-1.83-1.09h0l-1.82-1.09h0l-1.82-1.1h0l-1.83-1.09h0l-1.82-1.09h0l-1.82-1.1h0l-1.83-1.09h0l-1.82-1.09h0l-.5-.3-.17,2.21h0l-.22,3.06h0l-.23,3h0l-.23,3.06h0l-.22,3.05h0l-.23,3.06-.23,3h0l-.22,3.06h0l-.23,3.06h0l-.23,3.05h0l-.22,3.06h0l-.23,3h0l-.23,3.06h0l-.22,3.06h0l-.23,3.05h0l-.22,3.06h0l-.23,3h0l-.23,3.06h0l-.21,2.9-.06,0-1,.93-1,.93h0l-1.05.94h0l-1,.93-1,.93-1.05.93h0l-1,.93h0l-1.05.94h0l-1,.93-1,.93h0l-1,.93h0l-1,.93h0l-1.05.94h0l-1,.93h0l-1,.93-1,.93h0l-1,.94h0l-1.05.93h0l-1,.93h0l-1,.93h0l-1,.93h0l-1,.94h0l-1.05.93-1,.93-1,.93-1,.93h0l-.8.72-.69-1h0l-3-4.26h0l-3-4.25h0l-3-4.26h0l-3-4.26-3-4.25-3-4.26h0l-3-4.25-3-4.26h0l-3-4.25-3-4.26h0l-3-4.25-3-4.26h0l-3-4.25-3-4.26h0l-2.11-3,.83-.37,1.2-.53h0l1.2-.52h0l1.2-.53,1.2-.53h0l1.2-.52h0l1.2-.53h0l1.2-.53h0l1.2-.52,1.2-.53,1.2-.53h0l1.2-.52,1.2-.53,1.2-.53,1.2-.52,1.2-.53,1.2-.53,1.2-.52,1.2-.53,1.2-.53h0l1.2-.53h0l1.2-.52h0l1.2-.53h0l1.2-.53h0l1.2-.52h0l1.2-.53,1.2-.53,1.2-.52,1.2-.53,1.2-.53,1.2-.52,1.2-.53h0l1.2-.53,1.2-.52,1.2-.53h0l1.2-.53h0L202,133h0l1.2-.53h0l1.2-.53h0l1.2-.52h0l.48-.21-.69-.34h0l-1.72-.83-1.73-.84h0l-1.72-.84-1.73-.84h0l-1.72-.83h0l-1.73-.84h0l-1.72-.84h0l-1.63-.79-.1,0h0l-1.72-.84h0l-1-.51.67-.46h0l1.1-.76h0l1.11-.77h0l1.11-.76,1.11-.77,1.11-.76h0l1.11-.77h0l1.1-.76,1.11-.77h0l1.11-.76h0l1.11-.77h0l1.11-.76,1.1-.77h0l1.11-.76h0l1.11-.77h0l1.11-.76,1.11-.77h0l1.11-.76,1.1-.77h0l1.11-.76h0l1.11-.77h0l1.11-.76,1.11-.77h0l1.11-.76h0l1.1-.77,1.11-.76,1.11-.77h0l1.11-.76h0l1.11-.77,1.1-.76,1.11-.77h0l1.11-.76h0l1.11-.77,1.11-.76h0l1.11-.77h0l1.1-.76h0l1.11-.77h0l1.11-.76h0l1.11-.77,1.11-.76,1.1-.77h0L235,91l1.11-.77h0l1.11-.76h0l1.11-.77h0l1.11-.76.8-.56.3-.21,1.11-.76h0l1.11-.77h0l1.11-.76h0l1.11-.77h0l1.1-.76h0l1.11-.77h0l1.11-.76h0l1.11-.77h0l1.11-.76,1.11-.77h0l1.1-.76,1.11-.77,1.11-.76,1.11-.77h0l1.11-.76,1.1-.77,1.11-.76h0l1.11-.77,1-.69-.59,1.77h0l-.66,1.95h0l-.65,2h0l-.65,2h0l-.65,2h0l-.4,1.2L259.3,85h0l2.34,2.43h0L264,89.86h0l2.33,2.43h0l2.34,2.42h0L271,97.14l2.34,2.43h0l2.33,2.43h0l2.34,2.43,1.82,1.89,2.27,8.32,2,2,2.26,2.24h0l2.26,2.24h0l2.27,2.24,2.26,2.23,2.26,2.24h0l2.27,2.24,2.26,2.24,2.27,2.24.32.32,1.32.31,1.54.36,1.55.36h0l.21.05,3.63,6.7Z" transform="translate(-22.54 -18.18)"/><polygon id="cheek" class="cls-3" points="281.84 120.52 281.63 120.51 280.89 120.45 280.16 120.4 279.42 120.34 278.68 120.29 277.94 120.23 277.2 120.18 276.54 120.13 276.38 120.01 274.77 118.76 273.15 117.51 271.54 116.25 269.93 115 268.32 113.75 266.71 112.5 265.75 111.76 266.15 112.7 267.13 114.99 268.1 117.28 269.07 119.58 270.05 121.87 271.02 124.17 272 126.46 272.61 127.9 270.69 125.63 265.55 119.53 260.39 113.43 255.25 107.33 250.1 101.23 244.95 95.13 239.8 89.02 239.58 88.77 239.82 90.01 240.07 91.31 240.31 92.61 240.56 93.9 240.81 95.2 241.06 96.5 241.3 97.8 241.55 99.09 241.8 100.39 242.04 101.69 242.29 102.98 242.54 104.28 242.79 105.58 243.03 106.88 243.28 108.17 243.53 109.47 243.78 110.77 244.02 112.07 244.27 113.36 244.52 114.66 244.76 115.96 245.01 117.26 245.26 118.56 245.49 119.75 246.5 120.25 247.59 120.79 248.69 121.34 249.78 121.88 250.88 122.43 251.98 122.97 253.07 123.52 254.17 124.06 255.26 124.61 256.36 125.15 257.46 125.69 258.55 126.24 259.65 126.78 260.75 127.33 261.84 127.87 262.94 128.42 264.03 128.96 265.13 129.5 266.23 130.05 267.32 130.59 268.42 131.14 269.44 131.65 271.79 135.77 272.26 136.59 272.37 136.56 272.93 136.36 273.49 136.17 274.04 135.98 274.6 135.78 275.16 135.59 275.72 135.4 276.28 135.21 276.83 135.01 277.39 134.82 277.95 134.63 278.51 134.43 279.07 134.24 279.63 134.05 280.19 133.85 280.66 133.69 280.69 133.59 280.9 132.93 281.12 132.26 281.33 131.59 281.54 130.92 281.75 130.26 281.97 129.59 282.18 128.92 282.39 128.25 282.6 127.59 282.82 126.92 283.03 126.25 283.24 125.58 283.45 124.92 283.67 124.25 283.69 124.18 282.29 121.4 281.84 120.52"/><g id="PEGASUS"><path id="P" class="cls-1" d="M45.68,320H43V297h5.82c4.74,0,7.39,2.16,7.39,6.09,0,4.27-2.81,6.64-6.5,6.64h-4Zm0-12.29,3.78,0c2.49,0,3.93-1.65,3.93-4.54s-1.73-4-4.62-4H45.68Z" transform="translate(-22.54 -18.18)"/><path id="E" class="cls-1" d="M82.93,297H96v2.06H85.62v7.58h8.55v2.06H85.62v9.19H96V320h-13Z" transform="translate(-22.54 -18.18)"/><path id="G" class="cls-1" d="M135.88,318.29a11.1,11.1,0,0,1-6.22,2c-6.91,0-8.11-7.16-8.11-11.74,0-4.3,1.16-11.84,7.83-11.84a8,8,0,0,1,6.7,3.68l-2.37,1.24a5.3,5.3,0,0,0-4.49-2.76c-4.46,0-4.86,7-4.86,9.75,0,7.88,2.69,9.5,5.34,9.5a6.57,6.57,0,0,0,3.49-1.07v-6.92h-5v-2.06h7.71Z" transform="translate(-22.54 -18.18)"/><path id="A" class="cls-1" d="M165.3,312.89l-2.08,7.54-2.65-.62L167.35,297h3.21l6.78,22.79-2.64.62-2.09-7.54Zm3.7-12.81h-.08l-3,10.74h6Z" transform="translate(-22.54 -18.18)"/><path id="S" class="cls-1" d="M213,302.25c-.44-1.69-1.4-3.38-3.69-3.38-2.53,0-3.53,1.76-3.53,3.69s.44,2.44,4.65,4.61c3.29,1.69,5.54,3.1,5.54,6.65s-2.25,6.47-6.74,6.47c-4.74,0-6.46-2.69-6.87-6.34l2.69-.31c.36,2.55,1,4.48,4.26,4.48,2.33,0,4-1.34,4-4.1,0-3-2.29-4.06-5.06-5.44-3.09-1.55-5.13-2.65-5.13-6a5.89,5.89,0,0,1,6.22-5.85c3.77,0,5.62,2.3,6.3,5.19Z" transform="translate(-22.54 -18.18)"/><path id="U" class="cls-1" d="M245.38,297v16.69c0,2.28.53,4.41,3.86,4.41s3.89-2.17,3.89-4.41V297h2.69V314.4c0,3.58-2.61,5.89-6.58,5.89s-6.54-2.38-6.54-5.79V297Z" transform="translate(-22.54 -18.18)"/><path id="S-2" data-name="S" class="cls-1" d="M293.23,302.25c-.44-1.69-1.4-3.38-3.69-3.38-2.53,0-3.53,1.76-3.53,3.69s.44,2.44,4.65,4.61c3.29,1.69,5.54,3.1,5.54,6.65s-2.25,6.47-6.74,6.47c-4.74,0-6.46-2.69-6.86-6.34l2.69-.31c.36,2.55,1,4.48,4.25,4.48,2.33,0,4-1.34,4-4.1,0-3-2.29-4.06-5.05-5.44-3.09-1.55-5.14-2.65-5.14-6a5.89,5.89,0,0,1,6.22-5.85c3.77,0,5.62,2.3,6.3,5.19Z" transform="translate(-22.54 -18.18)"/></g></svg>