<?xml version="1.0" encoding="utf-8"?>
<!-- Generator: Adobe Illustrator 24.1.1, SVG Export Plug-In . SVG Version: 6.00 Build 0)  -->
<svg version="1.1" id="Pegasus_logo" xmlns="http://www.w3.org/2000/svg" xmlns:xlink="http://www.w3.org/1999/xlink" x="0px"
	 y="0px" viewBox="0 0 264.3 23.7" style="enable-background:new 0 0 264.3 23.7;" xml:space="preserve">
<style type="text/css">
	.st0{opacity:0.3;}
	.st1{fill:#D1D1D1;}
</style>
<g id="PEGASUS" class="st0">
	<path id="P" class="st1" d="M8.3,23.3H5.6v-23h5.8c4.7,0,7.4,2.2,7.4,6.1c0,4.3-2.8,6.6-6.5,6.6h-4L8.3,23.3z M8.3,11h3.8
		c2.5,0,3.9-1.6,3.9-4.5s-1.7-4-4.6-4H8.3V11z"/>
	<path id="E" class="st1" d="M45.5,0.3h13.1v2.1H48.2V10h8.6v2h-8.6v9.2h10.4v2.1h-13L45.5,0.3z"/>
	<path id="G" class="st1" d="M98.5,21.6c-1.8,1.3-4,2-6.2,2c-6.9,0-8.1-7.2-8.1-11.7C84.1,7.5,85.3,0,92,0c2.7,0,5.2,1.4,6.7,3.7
		l-2.4,1.2c-0.9-1.7-2.6-2.7-4.5-2.8c-4.5,0-4.9,7-4.9,9.8c0,7.9,2.7,9.5,5.3,9.5c1.2,0,2.5-0.4,3.5-1.1v-6.9h-5v-2.1h7.7L98.5,21.6
		z"/>
	<path id="A" class="st1" d="M127.9,16.2l-2.1,7.5l-2.6-0.6L130,0.3h3.2l6.8,22.8l-2.6,0.6l-2.1-7.5H127.9z M131.6,3.4L131.6,3.4
		l-3.1,10.7h6L131.6,3.4z"/>
	<path id="S" class="st1" d="M175.6,5.5c-0.4-1.7-1.4-3.4-3.7-3.4c-2.5,0-3.5,1.8-3.5,3.7s0.4,2.4,4.6,4.6c3.3,1.7,5.5,3.1,5.5,6.6
		s-2.3,6.5-6.7,6.5c-4.7,0-6.5-2.7-6.9-6.3l2.7-0.3c0.4,2.5,1,4.5,4.3,4.5c2.3,0,4-1.3,4-4.1c0-3-2.3-4.1-5.1-5.4
		c-3.1-1.5-5.1-2.6-5.1-6c0-3.3,2.7-5.9,5.9-5.9l0,0h0.3c3.8,0,5.6,2.3,6.3,5.2L175.6,5.5z"/>
	<path id="U" class="st1" d="M208,0.3V17c0,2.3,0.5,4.4,3.9,4.4c3.3,0,3.9-2.2,3.9-4.4V0.3h2.7v17.4c0,3.6-2.6,5.9-6.6,5.9
		s-6.5-2.4-6.5-5.8V0.3H208z"/>
	<path id="S-2" class="st1" d="M255.8,5.5c-0.4-1.7-1.4-3.4-3.7-3.4c-2.5,0-3.5,1.8-3.5,3.7s0.4,2.4,4.6,4.6
		c3.3,1.7,5.5,3.1,5.5,6.6s-2.3,6.5-6.7,6.5c-4.7,0-6.5-2.7-6.9-6.3l2.7-0.3c0.4,2.5,1,4.5,4.3,4.5c2.3,0,4-1.3,4-4.1
		c0-3-2.3-4.1-5-5.4c-3.1-1.5-5.1-2.6-5.1-6c0-3.3,2.7-5.9,5.9-5.9l0,0h0.3c3.8,0,5.6,2.3,6.3,5.2L255.8,5.5z"/>
</g>
</svg>
